<svg xmlns="http://www.w3.org/2000/svg" width="114.402" height="60" viewBox="0 0 114.402 60">
  <g id="Group_3" data-name="Group 3" transform="translate(-25.263 -71.446)">
    <path id="Path_1" data-name="Path 1" d="M141.741,120.987c6.367,6.512,21.3,2.238,33.354-9.547s16.665-26.617,10.3-33.13c-4.8-4.911-14.472-3.687-24.107,2.264,12.483-9.377,25.972-12.031,32.253-5.606,7.364,7.532,2.031,24.688-11.911,38.319s-31.214,18.575-38.578,11.042a11.422,11.422,0,0,1-2.941-5.63A9.224,9.224,0,0,0,141.741,120.987Z" transform="translate(-60.795 0)" fill="#001a31"/>
    <g id="Group_1" data-name="Group 1" transform="translate(83.308 75.843)">
      <path id="Path_2" data-name="Path 2" d="M188.014,120.138c14.2-13.885,19.809-31.287,12.826-39.349.231.2.454.407.668.626,7.656,7.831,2.112,25.665-12.382,39.836s-32.449,19.309-40.1,11.479c-.149-.152-.289-.312-.428-.472C156.593,139.144,173.936,133.9,188.014,120.138Z" transform="translate(-148.594 -80.789)" fill="#e1001e"/>
    </g>
    <g id="Group_2" data-name="Group 2" transform="translate(25.263 87.867)">
      <path id="Path_3" data-name="Path 3" d="M36.044,107.43,25.263,129.939h2.509l3.311-7.044H42.875l3.235,7.044h2.605L38.1,107.43Zm5.871,13.381h-9.85c2.665-5.554,4.338-9.1,4.982-10.575C37.674,111.7,39.308,115.245,41.915,120.811Z" transform="translate(-25.263 -106.915)" fill="#001a31"/>
      <path id="Path_4" data-name="Path 4" d="M98.117,119.8a12.352,12.352,0,0,0-4.653-2.155l-4.5-1.222A10.936,10.936,0,0,1,85.2,114.81a2.78,2.78,0,0,1-1.06-2.312,3.309,3.309,0,0,1,1.535-2.838,8.995,8.995,0,0,1,5.078-1.112,10.939,10.939,0,0,1,7.349,2.338l.049.042h.367v-2.5l-.06-.052a8.188,8.188,0,0,0-3.172-1.451,16.27,16.27,0,0,0-4.243-.585,11.938,11.938,0,0,0-6.755,1.687,5.344,5.344,0,0,0-2.521,4.631c0,2.755,1.85,4.673,5.5,5.7l4.247,1.152a16.1,16.1,0,0,1,4.545,1.794,2.617,2.617,0,0,1,1.244,2.256c0,2.7-2.237,4.01-6.839,4.01a14.9,14.9,0,0,1-4.96-.827,9.37,9.37,0,0,1-3.728-2.272l-.051-.054h-.409v2.632l.059.052a10.212,10.212,0,0,0,3.86,1.982,17.5,17.5,0,0,0,5.035.731c3.177,0,5.556-.608,7.071-1.806a5.69,5.69,0,0,0,2.3-4.639A4.465,4.465,0,0,0,98.117,119.8Z" transform="translate(-54.934 -106.336)" fill="#001a31"/>
      <rect id="Rectangle_1" data-name="Rectangle 1" width="2.245" height="22.509" transform="translate(52.724 0.515)" fill="#001a31"/>
      <path id="Path_5" data-name="Path 5" d="M179.218,125.125l-.048.04a11.338,11.338,0,0,1-7.448,2.437,12.2,12.2,0,0,1-7.947-2.55,8.643,8.643,0,0,1-3.1-7.055,8.43,8.43,0,0,1,3.137-6.814,12.234,12.234,0,0,1,8.011-2.6,13.855,13.855,0,0,1,4.066.636,7.741,7.741,0,0,1,3.146,1.7l.051.049h.4v-2.476l-.065-.052a8.885,8.885,0,0,0-3.313-1.48,17.111,17.111,0,0,0-4.257-.552,16.869,16.869,0,0,0-6.743,1.317,11.543,11.543,0,0,0-4.947,4.032,10.892,10.892,0,0,0-1.9,6.372,10.653,10.653,0,0,0,3.777,8.543,14.261,14.261,0,0,0,9.488,3.177,16.507,16.507,0,0,0,4.551-.634,9.735,9.735,0,0,0,3.439-1.624l.064-.052v-2.411Z" transform="translate(-95.667 -106.373)" fill="#001a31"/>
    </g>
  </g>
</svg>
