<?xml version="1.0" encoding="utf-8"?>
<!-- Generator: Adobe Illustrator 27.5.0, SVG Export Plug-In . SVG Version: 6.00 Build 0)  -->
<svg version="1.1" id="Layer_1" xmlns="http://www.w3.org/2000/svg" xmlns:xlink="http://www.w3.org/1999/xlink" x="0px" y="0px"
	 viewBox="0 0 3840 2160" style="enable-background:new 0 0 3840 2160;" xml:space="preserve">
<g>
	<defs>
		<rect id="SVGID_1_" width="3840" height="2160"/>
	</defs>
	<clipPath id="SVGID_00000154407446174619016310000012220515067153873066_">
		<use xlink:href="#SVGID_1_"  style="overflow:visible;"/>
	</clipPath>
	
		<radialGradient id="SVGID_00000078007171743628722950000009065354609855696561_" cx="1364.3481" cy="906.1157" r="8688.2451" gradientUnits="userSpaceOnUse">
		<stop  offset="0" style="stop-color:#FFFFFF"/>
		<stop  offset="0.0809" style="stop-color:#DEF0FF"/>
		<stop  offset="0.3174" style="stop-color:#7EC3FF"/>
		<stop  offset="0.5832" style="stop-color:#1593FF"/>
	</radialGradient>
	
		<rect style="clip-path:url(#SVGID_00000154407446174619016310000012220515067153873066_);fill:url(#SVGID_00000078007171743628722950000009065354609855696561_);" width="3840" height="2160"/>
	<g style="clip-path:url(#SVGID_00000154407446174619016310000012220515067153873066_);">
		<path style="opacity:0;fill:none;" d="M-347.864,2481.226c592.349-41.425,5288.244,2494.668,5595.907,1988.889
			c624.486-1026.614,709.726,688.824,1306.047-100.146c533.695-706.112,2192.473-3069.476,2505.887-3626.791
			c166.185-295.509,6786.573-428.134,5435.651-1760.332"/>
		<path style="opacity:0.0065;fill:none;stroke:#00AFFC;stroke-width:0.2774;stroke-miterlimit:10;" d="M-374.076,2462.835
			c587.306-45.833,5253.262,2472.051,5562.145,1967.338c626.96-1024.451,727.212,689.225,1324.378-99.005
			C7046.9,3625.718,8697.642,1278.28,9012.632,722.343c167.019-294.779,6752.769-438.501,5424.658-1750.76"/>
		<path style="opacity:0.0129;fill:none;stroke:#00AFFC;stroke-width:0.5548;stroke-miterlimit:10;" d="M-400.289,2444.444
			c582.262-50.242,5218.281,2449.433,5528.382,1945.786c629.436-1022.288,744.698,689.626,1342.711-97.864
			c535.21-704.789,2177.917-3036.299,2494.482-3590.86c167.854-294.049,6718.965-448.868,5413.666-1741.187"/>
		<path style="opacity:0.0194;fill:none;stroke:#00AFFC;stroke-width:0.8323;stroke-miterlimit:10;" d="M-426.501,2426.053
			c577.219-54.651,5183.299,2426.816,5494.62,1924.235c631.91-1020.125,762.184,690.027,1361.043-96.723
			C6965.129,3549.438,8599.8,1233.853,8917.94,680.67c168.69-293.318,6685.161-459.234,5402.674-1731.615"/>
		<path style="opacity:0.0258;fill:none;stroke:#00AFFC;stroke-width:1.1097;stroke-miterlimit:10;" d="M-452.714,2407.662
			c572.175-59.059,5148.317,2404.199,5460.857,1902.683c634.385-1017.962,779.67,690.429,1379.375-95.582
			c536.725-703.465,2163.36-3003.123,2483.077-3554.929c169.525-292.588,6651.356-469.601,5391.681-1722.042"/>
		<path style="opacity:0.0323;fill:none;stroke:#00AFFC;stroke-width:1.3871;stroke-miterlimit:10;" d="M-478.927,2389.271
			c567.131-63.468,5113.336,2381.582,5427.095,1881.131c636.859-1015.8,797.156,690.83,1397.707-94.441
			c537.482-702.803,2156.083-2986.535,2477.375-3536.964c170.361-291.858,6617.553-479.968,5380.688-1712.47"/>
		<path style="opacity:0.0387;fill:none;stroke:#00AFFC;stroke-width:1.6645;stroke-miterlimit:10;" d="M-505.139,2370.88
			c562.088-67.876,5078.354,2358.964,5393.333,1859.579c639.333-1013.636,814.642,691.231,1416.04-93.3
			c538.239-702.141,2148.805-2969.947,2471.672-3518.999c171.196-291.128,6583.748-490.334,5369.696-1702.897"/>
		<path style="opacity:0.0452;fill:none;stroke:#00AFFC;stroke-width:1.9419;stroke-miterlimit:10;" d="M-531.352,2352.489
			c557.044-72.285,5043.373,2336.347,5359.57,1838.028c641.808-1011.474,832.128,691.632,1434.372-92.16
			c538.997-701.479,2141.527-2953.358,2465.97-3501.033C8900.591,306.927,15278.504,96.623,14087.264-1096"/>
		<path style="opacity:0.0516;fill:none;stroke:#00AFFC;stroke-width:2.2194;stroke-miterlimit:10;" d="M-557.564,2334.098
			c552.001-76.693,5008.392,2313.729,5325.808,1816.476c644.283-1009.311,849.614,692.033,1452.704-91.019
			c539.754-700.817,2134.249-2936.77,2460.267-3483.068c172.867-289.668,6516.141-511.068,5347.712-1683.752"/>
		<path style="opacity:0.0581;fill:none;stroke:#00AFFC;stroke-width:2.4968;stroke-miterlimit:10;" d="M-583.777,2315.707
			c546.957-81.102,4973.41,2291.112,5292.045,1794.925c646.757-1007.148,867.1,692.435,1471.036-89.878
			c540.511-700.155,2126.971-2920.182,2454.565-3465.103c173.702-288.937,6482.336-521.434,5336.719-1674.179"/>
		<path style="opacity:0.0645;fill:none;stroke:#00AFFC;stroke-width:2.7742;stroke-miterlimit:10;" d="M-609.99,2297.316
			c541.914-85.51,4938.429,2268.495,5258.283,1773.373c649.231-1004.985,884.586,692.836,1489.368-88.737
			c541.268-699.493,2119.693-2903.593,2448.862-3447.137c174.538-288.207,6448.532-531.801,5325.727-1664.607"/>
		<path style="opacity:0.071;fill:none;stroke:#00AFFC;stroke-width:3.0516;stroke-miterlimit:10;" d="M-636.202,2278.926
			c536.87-89.919,4903.447,2245.878,5224.521,1751.821c651.706-1002.822,902.072,693.237,1507.7-87.596
			c542.026-698.831,2112.415-2887.005,2443.16-3429.172c175.373-287.477,6414.728-542.167,5314.733-1655.034"/>
		<path style="opacity:0.0774;fill:none;stroke:#00AFFC;stroke-width:3.329;stroke-miterlimit:10;" d="M-662.415,2260.534
			c531.826-94.327,4868.465,2223.26,5190.758,1730.269c654.181-1000.659,919.558,693.638,1526.033-86.455
			c542.783-698.169,2105.137-2870.417,2437.457-3411.206c176.208-286.747,6380.925-552.534,5303.741-1645.462"/>
		<path style="opacity:0.0839;fill:none;stroke:#00AFFC;stroke-width:3.6065;stroke-miterlimit:10;" d="M-688.627,2242.144
			c526.783-98.736,4833.484,2200.643,5156.996,1708.718c656.655-998.496,937.044,694.04,1544.364-85.314
			c543.541-697.508,2097.859-2853.829,2431.754-3393.241c177.044-286.017,6347.121-562.901,5292.75-1635.889"/>
		<path style="opacity:0.0903;fill:none;stroke:#00AFFC;stroke-width:3.8839;stroke-miterlimit:10;" d="M-714.84,2223.753
			c521.739-103.144,4798.502,2178.026,5123.233,1687.166c659.129-996.333,954.53,694.441,1562.697-84.174
			c544.297-696.845,2090.581-2837.24,2426.052-3375.276c177.879-285.286,6313.316-573.267,5281.757-1626.317"/>
		<path style="opacity:0.0968;fill:none;stroke:#00AFFC;stroke-width:4.1613;stroke-miterlimit:10;" d="M-741.052,2205.362
			c516.696-107.553,4763.521,2155.408,5089.471,1665.614c661.604-994.17,972.016,694.842,1581.029-83.033
			c545.055-696.184,2083.303-2820.652,2420.35-3357.31c178.715-284.556,6279.513-583.634,5270.765-1616.744"/>
		<path style="opacity:0.1032;fill:none;stroke:#00AFFC;stroke-width:4.4387;stroke-miterlimit:10;" d="M-767.265,2186.971
			c511.652-111.961,4728.54,2132.791,5055.708,1644.063c664.079-992.007,989.502,695.243,1599.361-81.892
			C6433.617,3053.619,7963.83,945.078,8302.452,409.797c179.55-283.826,6245.708-594.001,5259.771-1607.172"/>
		<path style="opacity:0.1097;fill:none;stroke:#00AFFC;stroke-width:4.7161;stroke-miterlimit:10;" d="M-793.478,2168.58
			c506.608-116.37,4693.558,2110.174,5021.946,1622.511c666.553-989.844,1006.988,695.644,1617.693-80.751
			C6392.731,3015.48,7914.909,922.864,8255.106,388.96c180.386-283.096,6211.904-604.367,5248.779-1597.599"/>
		<path style="opacity:0.1161;fill:none;stroke:#00AFFC;stroke-width:4.9935;stroke-miterlimit:10;" d="M-819.69,2150.189
			c501.565-120.778,4658.577,2087.557,4988.184,1600.959c669.027-987.681,1024.474,696.046,1636.025-79.61
			C6351.846,2977.34,7865.988,900.651,8207.761,368.124c181.221-282.366,6178.101-614.734,5237.787-1588.026"/>
		<path style="opacity:0.1226;fill:none;stroke:#00AFFC;stroke-width:5.271;stroke-miterlimit:10;" d="M-845.903,2131.798
			c496.521-125.187,4623.595,2064.939,4954.421,1579.407c671.502-985.519,1041.96,696.447,1654.357-78.469
			C6310.96,2939.2,7817.067,878.437,8160.416,347.287c182.056-281.635,6144.296-625.101,5226.795-1578.454"/>
		<path style="opacity:0.129;fill:none;stroke:#00AFFC;stroke-width:5.5484;stroke-miterlimit:10;" d="M-872.115,2113.407
			c491.478-129.595,4588.614,2042.322,4920.659,1557.856c673.976-983.356,1059.446,696.848,1672.689-77.329
			C6270.074,2901.06,7768.146,856.224,8113.07,326.451c182.892-280.905,6110.492-635.467,5215.803-1568.881"/>
		<path style="opacity:0.1355;fill:none;stroke:#00AFFC;stroke-width:5.8258;stroke-miterlimit:10;" d="M-898.328,2095.016
			c486.434-134.004,4553.632,2019.705,4886.896,1536.304c676.451-981.193,1076.932,697.25,1691.022-76.188
			C6229.189,2862.92,7719.226,834.01,8065.725,305.614c183.727-280.175,6076.688-645.834,5204.81-1559.309"/>
		<path style="opacity:0.1419;fill:none;stroke:#00AFFC;stroke-width:6.1032;stroke-miterlimit:10;" d="M-924.541,2076.625
			c481.391-138.412,4518.65,1997.087,4853.134,1514.752c678.925-979.03,1094.418,697.651,1709.354-75.047
			C6188.303,2824.78,7670.305,811.797,8018.38,284.778c184.563-279.445,6042.884-656.2,5193.817-1549.736"/>
		<path style="opacity:0.1484;fill:none;stroke:#00AFFC;stroke-width:6.3807;stroke-miterlimit:10;" d="M-950.753,2058.234
			c476.347-142.821,4483.669,1974.47,4819.372,1493.201c681.4-976.867,1111.904,698.052,1727.686-73.906
			c551.113-690.888,2025.08-2687.946,2374.73-3213.587c185.397-278.715,6009.08-666.567,5182.825-1540.164"/>
		<path style="opacity:0.1548;fill:none;stroke:#00AFFC;stroke-width:6.6581;stroke-miterlimit:10;" d="M-976.966,2039.843
			c471.303-147.229,4448.688,1951.853,4785.609,1471.649c683.874-974.704,1129.39,698.453,1746.018-72.765
			C6106.532,2748.5,7572.463,767.369,7923.689,243.105c186.233-277.985,5975.275-676.934,5171.832-1530.591"/>
		<path style="opacity:0.1613;fill:none;stroke:#00AFFC;stroke-width:6.9355;stroke-miterlimit:10;" d="M-1003.178,2021.452
			c466.26-151.637,4413.706,1929.235,4751.847,1450.097c686.349-972.541,1146.876,698.854,1764.35-71.625
			c552.627-689.564,2010.523-2654.769,2363.325-3177.656c187.069-277.254,5941.472-687.3,5160.841-1521.018"/>
		<path style="opacity:0.1677;fill:none;stroke:#00AFFC;stroke-width:7.2129;stroke-miterlimit:10;" d="M-1029.391,2003.061
			c461.216-156.046,4378.725,1906.618,4718.084,1428.545c688.823-970.378,1164.362,699.256,1782.682-70.483
			c553.385-688.903,2003.246-2638.181,2357.623-3159.691c187.904-276.524,5907.667-697.667,5149.848-1511.446"/>
		<path style="opacity:0.1742;fill:none;stroke:#00AFFC;stroke-width:7.4903;stroke-miterlimit:10;" d="M-1055.603,1984.671
			c456.173-160.455,4343.743,1884.001,4684.322,1406.994c691.298-968.215,1181.848,699.657,1801.014-69.343
			c554.142-688.24,1995.968-2621.592,2351.92-3141.726c188.739-275.794,5873.863-708.034,5138.855-1501.874"/>
		<path style="opacity:0.1806;fill:none;stroke:#00AFFC;stroke-width:7.7677;stroke-miterlimit:10;" d="M-1081.816,1966.28
			c451.129-164.863,4308.762,1861.384,4650.56,1385.442c693.772-966.052,1199.334,700.058,1819.346-68.202
			c554.9-687.579,1988.69-2605.004,2346.218-3123.76c189.575-275.064,5840.059-718.4,5127.863-1492.301"/>
		<path style="opacity:0.1871;fill:none;stroke:#00AFFC;stroke-width:8.0452;stroke-miterlimit:10;" d="M-1108.028,1947.889
			c446.085-169.271,4273.78,1838.766,4616.797,1363.89c696.247-963.889,1216.82,700.46,1837.679-67.061
			c555.657-686.917,1981.412-2588.416,2340.515-3105.795c190.41-274.334,5806.255-728.767,5116.87-1482.728"/>
		<path style="opacity:0.1935;fill:none;stroke:#00AFFC;stroke-width:8.3226;stroke-miterlimit:10;" d="M-1134.241,1929.498
			c441.042-173.68,4238.798,1816.149,4583.035,1342.339c698.722-961.726,1234.306,700.861,1856.011-65.92
			c556.414-686.255,1974.134-2571.828,2334.813-3087.83c191.246-273.603,5772.452-739.133,5105.878-1473.156"/>
		<path style="opacity:0.2;fill:none;stroke:#00AFFC;stroke-width:8.6;stroke-miterlimit:10;" d="M-1160.454,1911.107
			c435.998-178.089,4203.817,1793.532,4549.273,1320.787c701.196-959.563,1251.792,701.262,1874.343-64.779
			c557.171-685.593,1966.856-2555.24,2329.11-3069.864c192.081-272.873,5738.648-749.5,5094.886-1463.583"/>
		<path style="opacity:0.2065;fill:none;stroke:#00AFFC;stroke-width:8.8774;stroke-miterlimit:10;" d="M-1186.666,1892.716
			c430.955-182.497,4168.835,1770.914,4515.51,1299.235c703.67-957.401,1269.278,701.663,1892.675-63.638
			C5779.448,2443.382,7181.097,589.661,7544.927,76.414c192.916-272.143,5704.844-759.867,5083.894-1454.011"/>
		<path style="opacity:0.2129;fill:none;stroke:#00AFFC;stroke-width:9.1548;stroke-miterlimit:10;" d="M-1212.879,1874.325
			c425.911-186.906,4133.854,1748.297,4481.748,1277.683c706.145-955.238,1286.764,702.065,1911.008-62.498
			c558.686-684.269,1952.3-2522.063,2317.705-3033.934c193.751-271.413,5671.04-770.233,5072.901-1444.438"/>
		<path style="opacity:0.2194;fill:none;stroke:#00AFFC;stroke-width:9.4323;stroke-miterlimit:10;" d="M-1239.091,1855.934
			c420.868-191.314,4098.873,1725.68,4447.985,1256.132c708.619-953.075,1304.25,702.466,1929.339-61.357
			C5697.677,2367.102,7083.255,545.234,7450.236,34.741c194.587-270.683,5637.235-780.6,5061.908-1434.866"/>
		<path style="opacity:0.2258;fill:none;stroke:#00AFFC;stroke-width:9.7097;stroke-miterlimit:10;" d="M-1265.304,1837.543
			c415.824-195.722,4063.891,1703.063,4414.223,1234.58c711.094-950.912,1321.736,702.867,1947.672-60.216
			c560.2-682.945,1937.744-2488.886,2306.3-2998.003c195.422-269.952,5603.432-790.967,5050.916-1425.293"/>
		<path style="opacity:0.2323;fill:none;stroke:#00AFFC;stroke-width:9.9871;stroke-miterlimit:10;" d="M-1291.517,1819.152
			c410.781-200.131,4028.909,1680.445,4380.461,1213.028c713.569-948.749,1339.222,703.268,1966.004-59.075
			C5615.906,2290.822,6985.414,500.807,7355.545-6.932c196.258-269.222,5569.627-801.333,5039.923-1415.72"/>
		<path style="opacity:0.2387;fill:none;stroke:#00AFFC;stroke-width:10.2645;stroke-miterlimit:10;" d="M-1317.729,1800.761
			c405.737-204.539,3993.928,1657.828,4346.698,1191.477c716.043-946.586,1356.708,703.669,1984.336-57.934
			C5575.02,2252.682,6936.493,478.594,7308.2-27.768c197.093-268.492,5535.823-811.7,5028.932-1406.148"/>
		<path style="opacity:0.2452;fill:none;stroke:#00AFFC;stroke-width:10.5419;stroke-miterlimit:10;" d="M-1343.942,1782.37
			c400.693-208.948,3958.946,1635.211,4312.936,1169.925c718.518-944.423,1374.194,704.071,2002.668-56.793
			C5534.134,2214.542,6887.572,456.38,7260.855-48.605c197.928-267.762,5502.019-822.067,5017.939-1396.575"/>
		<path style="opacity:0.2516;fill:none;stroke:#00AFFC;stroke-width:10.8194;stroke-miterlimit:10;" d="M-1370.154,1763.979
			c395.65-213.356,3923.965,1612.593,4279.174,1148.373c720.992-942.26,1391.68,704.472,2021-55.653
			C5493.249,2176.403,6838.651,434.167,7213.51-69.441c198.764-267.032,5468.215-832.433,5006.946-1387.003"/>
		<path style="opacity:0.2581;fill:none;stroke:#00AFFC;stroke-width:11.0968;stroke-miterlimit:10;" d="M-1396.367,1745.588
			c390.606-217.765,3888.983,1589.976,4245.411,1126.822c723.467-940.097,1409.166,704.873,2039.332-54.512
			C5452.363,2138.263,6789.731,411.953,7166.164-90.278c199.599-266.302,5434.411-842.8,4995.954-1377.43"/>
		<path style="opacity:0.2645;fill:none;stroke:#00AFFC;stroke-width:11.3742;stroke-miterlimit:10;" d="M-1422.579,1727.197
			c385.563-222.173,3854.002,1567.359,4211.648,1105.27c725.941-937.934,1426.652,705.274,2057.665-53.371
			C5411.478,2100.123,6740.81,389.74,7118.819-111.114c200.435-265.571,5400.607-853.167,4984.961-1367.858"/>
		<path style="opacity:0.271;fill:none;stroke:#00AFFC;stroke-width:11.6516;stroke-miterlimit:10;" d="M-1448.792,1708.806
			c380.519-226.582,3819.021,1544.741,4177.886,1083.718c728.416-935.771,1444.138,705.676,2075.997-52.23
			c565.501-678.312,1886.798-2372.768,2266.383-2872.245c201.27-264.841,5366.803-863.533,4973.969-1358.285"/>
		<path style="opacity:0.2774;fill:none;stroke:#00AFFC;stroke-width:11.929;stroke-miterlimit:10;" d="M-1475.005,1690.416
			c375.475-230.99,3784.039,1522.124,4144.124,1062.167c730.89-933.609,1461.624,706.077,2094.329-51.089
			c566.258-677.65,1879.52-2356.18,2260.68-2854.28c202.105-264.111,5332.999-873.9,4962.977-1348.713"/>
		<path style="opacity:0.2839;fill:none;stroke:#00AFFC;stroke-width:12.2065;stroke-miterlimit:10;" d="M-1501.217,1672.025
			c370.432-235.399,3749.057,1499.507,4110.361,1040.615c733.365-931.446,1479.11,706.478,2112.661-49.948
			c567.016-676.988,1872.242-2339.592,2254.978-2836.314c202.94-263.381,5299.194-884.266,4951.984-1339.14"/>
		<path style="opacity:0.2903;fill:none;stroke:#00AFFC;stroke-width:12.4839;stroke-miterlimit:10;" d="M-1527.43,1653.634
			c365.388-239.807,3714.076,1476.89,4076.599,1019.063c735.839-929.283,1496.596,706.879,2130.993-48.808
			C5247.936,1947.563,6545.127,300.886,6929.438-194.46c203.776-262.651,5265.391-894.633,4940.992-1329.568"/>
		<path style="opacity:0.2968;fill:none;stroke:#00AFFC;stroke-width:12.7613;stroke-miterlimit:10;" d="M-1553.642,1635.243
			c360.345-244.216,3679.094,1454.272,4042.837,997.511c738.313-927.12,1514.082,707.281,2149.325-47.667
			C5207.05,1909.423,6496.206,278.672,6882.092-215.296c204.611-261.92,5231.586-905,4930-1319.995"/>
		<path style="opacity:0.3032;fill:none;stroke:#00AFFC;stroke-width:13.0387;stroke-miterlimit:10;" d="M-1579.855,1616.852
			c355.301-248.624,3644.113,1431.655,4009.074,975.96c740.788-924.957,1531.568,707.682,2167.657-46.526
			c569.288-675.002,1850.409-2289.827,2237.871-2782.418c205.447-261.19,5197.782-915.366,4919.007-1310.422"/>
		<path style="opacity:0.3097;fill:none;stroke:#00AFFC;stroke-width:13.3161;stroke-miterlimit:10;" d="M-1606.068,1598.461
			c350.257-253.033,3609.131,1409.037,3975.312,954.408c743.262-922.794,1549.054,708.083,2185.99-45.385
			c570.045-674.34,1843.13-2273.239,2232.168-2764.453c206.282-260.46,5163.979-925.733,4908.014-1300.85"/>
		<path style="opacity:0.3161;fill:none;stroke:#00AFFC;stroke-width:13.5935;stroke-miterlimit:10;" d="M-1632.28,1580.07
			c345.214-257.441,3574.15,1386.42,3941.549,932.856c745.737-920.631,1566.541,708.484,2204.322-44.244
			c570.803-673.678,1835.853-2256.65,2226.466-2746.487c207.117-259.73,5130.175-936.1,4897.021-1291.277"/>
		<path style="opacity:0.3226;fill:none;stroke:#00AFFC;stroke-width:13.871;stroke-miterlimit:10;" d="M-1658.493,1561.679
			c340.17-261.85,3539.168,1363.803,3907.787,911.305c748.212-918.468,1584.026,708.886,2222.654-43.104
			c571.56-673.016,1828.575-2240.062,2220.763-2728.522c207.953-259,5096.371-946.466,4886.03-1281.705"/>
		<path style="opacity:0.329;fill:none;stroke:#00AFFC;stroke-width:14.1484;stroke-miterlimit:10;" d="M-1684.705,1543.288
			c335.127-266.258,3504.187,1341.186,3874.025,889.753c750.686-916.305,1601.512,709.287,2240.986-41.963
			c572.317-672.354,1821.297-2223.474,2215.061-2710.557c208.789-258.269,5062.567-956.833,4875.038-1272.132"/>
		<path style="opacity:0.3355;fill:none;stroke:#00AFFC;stroke-width:14.4258;stroke-miterlimit:10;" d="M-1710.918,1524.897
			c330.083-270.667,3469.206,1318.568,3840.262,868.201c753.16-914.142,1618.998,709.688,2259.318-40.822
			c573.074-671.693,1814.019-2206.885,2209.358-2692.591c209.624-257.539,5028.763-967.199,4864.045-1262.56"/>
		<path style="opacity:0.3419;fill:none;stroke:#00AFFC;stroke-width:14.7032;stroke-miterlimit:10;" d="M-1737.13,1506.506
			c325.04-275.075,3434.224,1295.951,3806.5,846.65c755.635-911.979,1636.484,710.089,2277.65-39.681
			c573.832-671.031,1806.741-2190.297,2203.656-2674.626c210.459-256.809,4994.958-977.566,4853.052-1252.987"/>
		<path style="opacity:0.3484;fill:none;stroke:#00AFFC;stroke-width:14.9806;stroke-miterlimit:10;" d="M-1763.343,1488.115
			c319.996-279.484,3399.242,1273.334,3772.738,825.098c758.11-909.816,1653.97,710.491,2295.982-38.54
			C4879.966,1604.304,6104.84,100.964,6503.33-381.988c211.294-256.079,4961.154-987.933,4842.06-1243.415"/>
		<path style="opacity:0.3548;fill:none;stroke:#00AFFC;stroke-width:15.2581;stroke-miterlimit:10;" d="M-1789.556,1469.724
			c314.952-283.892,3364.261,1250.717,3738.975,803.546c760.584-907.654,1671.456,710.892,2314.314-37.399
			C4839.08,1566.165,6055.919,78.75,6455.984-402.824c212.13-255.349,4927.351-998.299,4831.067-1233.842"/>
		<path style="opacity:0.3613;fill:none;stroke:#00AFFC;stroke-width:15.5355;stroke-miterlimit:10;" d="M-1815.768,1451.333
			c309.909-288.301,3329.279,1228.099,3705.213,781.995c763.059-905.491,1688.942,711.293,2332.647-36.259
			C4798.195,1528.025,6006.998,56.537,6408.639-423.66c212.965-254.619,4893.546-1008.666,4820.076-1224.27"/>
		<path style="opacity:0.3677;fill:none;stroke:#00AFFC;stroke-width:15.8129;stroke-miterlimit:10;" d="M-1841.981,1432.942
			c304.865-292.709,3294.298,1205.482,3671.45,760.443c765.533-903.328,1706.428,711.695,2350.979-35.117
			C4757.309,1489.885,5958.078,34.323,6361.294-444.497c213.8-253.888,4859.742-1019.033,4809.083-1214.697"/>
		<path style="opacity:0.3742;fill:none;stroke:#00AFFC;stroke-width:16.0903;stroke-miterlimit:10;" d="M-1868.193,1414.552
			c299.822-297.118,3259.316,1182.865,3637.688,738.891c768.008-901.165,1723.914,712.096,2369.311-33.977
			C4716.423,1451.745,5909.157,12.11,6313.949-465.333c214.636-253.158,4825.938-1029.399,4798.09-1205.124"/>
		<path style="opacity:0.3806;fill:none;stroke:#00AFFC;stroke-width:16.3677;stroke-miterlimit:10;" d="M-1894.406,1396.161
			c294.778-301.526,3224.335,1160.247,3603.926,717.339c770.482-899.002,1741.4,712.497,2387.643-32.836
			C4675.538,1413.605,5860.236-10.104,6266.604-486.17c215.471-252.428,4792.134-1039.766,4787.098-1195.552"/>
		<path style="opacity:0.3871;fill:none;stroke:#00AFFC;stroke-width:16.6452;stroke-miterlimit:10;" d="M-1920.619,1377.77
			c289.734-305.935,3189.354,1137.63,3570.163,695.787c772.957-896.839,1758.886,712.898,2405.975-31.695
			C4634.652,1375.465,5811.315-32.317,6219.258-507.006c216.307-251.698,4758.33-1050.133,4776.105-1185.979"/>
		<path style="opacity:0.3935;fill:none;stroke:#00AFFC;stroke-width:16.9226;stroke-miterlimit:10;" d="M-1946.831,1359.379
			c284.691-310.343,3154.372,1115.013,3536.401,674.236c775.431-894.676,1776.372,713.299,2424.308-30.554
			C4593.767,1337.325,5762.394-54.531,6171.913-527.843c217.142-250.968,4724.526-1060.499,4765.113-1176.407"/>
		<path style="opacity:0.4;fill:none;stroke:#00AFFC;stroke-width:17.2;stroke-miterlimit:10;" d="M-1973.044,1340.988
			c279.647-314.752,3119.39,1092.396,3502.638,652.684c777.906-892.513,1793.858,713.701,2442.639-29.413
			c580.647-665.073,1741.24-2041.003,2152.333-2512.938c217.978-250.237,4690.722-1070.866,4754.121-1166.834"/>
		<path style="opacity:0.4065;fill:none;stroke:#00AFFC;stroke-width:17.4774;stroke-miterlimit:10;" d="M-1999.256,1322.597
			c274.604-319.16,3084.409,1069.778,3468.876,631.132c780.38-890.35,1811.344,714.102,2460.972-28.272
			C4511.996,1261.046,5664.553-98.958,6077.222-569.516c218.813-249.507,4656.917-1081.233,4743.128-1157.262"/>
		<path style="opacity:0.4129;fill:none;stroke:#00AFFC;stroke-width:17.7548;stroke-miterlimit:10;" d="M-2025.469,1304.206
			c269.56-323.569,3049.427,1047.161,3435.114,609.581c782.855-888.187,1828.83,714.503,2479.304-27.132
			C4471.11,1222.906,5615.632-121.171,6029.877-590.352c219.648-248.777,4623.113-1091.599,4732.136-1147.689"/>
		<path style="opacity:0.4194;fill:none;stroke:#00AFFC;stroke-width:18.0323;stroke-miterlimit:10;" d="M-2051.681,1285.815
			c264.517-327.977,3014.446,1024.543,3401.351,588.029c785.329-886.024,1846.316,714.904,2497.636-25.991
			c582.919-663.087,1719.405-1991.238,2135.226-2459.042c220.483-248.047,4589.309-1101.966,4721.143-1138.116"/>
		<path style="opacity:0.4258;fill:none;stroke:#00AFFC;stroke-width:18.3097;stroke-miterlimit:10;" d="M-2077.894,1267.424
			c259.473-332.386,2979.464,1001.926,3367.589,566.477c787.804-883.861,1863.802,715.306,2515.968-24.85
			c583.676-662.426,1712.128-1974.65,2129.523-2441.076c221.319-247.317,4555.506-1112.333,4710.151-1128.544"/>
		<path style="opacity:0.4323;fill:none;stroke:#00AFFC;stroke-width:18.5871;stroke-miterlimit:10;" d="M-2104.106,1249.033
			c254.429-336.794,2944.483,979.309,3333.826,544.926c790.278-881.698,1881.288,715.707,2534.3-23.709
			c584.434-661.764,1704.85-1958.061,2123.821-2423.111c222.154-246.586,4521.702-1122.699,4699.158-1118.971"/>
		<path style="opacity:0.4387;fill:none;stroke:#00AFFC;stroke-width:18.8645;stroke-miterlimit:10;" d="M-2130.319,1230.642
			c249.386-341.203,2909.501,956.692,3300.064,523.374c792.753-879.536,1898.774,716.108,2552.632-22.568
			c585.191-661.102,1697.572-1941.473,2118.118-2405.145c222.99-245.856,4487.898-1133.066,4688.167-1109.399"/>
		<path style="opacity:0.4452;fill:none;stroke:#00AFFC;stroke-width:19.1419;stroke-miterlimit:10;" d="M-2156.532,1212.251
			c244.342-345.611,2874.52,934.074,3266.302,501.822c795.227-877.373,1916.26,716.51,2570.964-21.427
			c585.948-660.44,1690.293-1924.885,2112.416-2387.18c223.825-245.126,4454.094-1143.432,4677.174-1099.826"/>
		<path style="opacity:0.4516;fill:none;stroke:#00AFFC;stroke-width:19.4194;stroke-miterlimit:10;" d="M-2182.744,1193.86
			c239.299-350.02,2839.539,911.457,3232.539,480.271c797.702-875.21,1933.746,716.911,2589.297-20.287
			C4225.797,994.066,5322.107-254.452,5745.805-715.37c224.661-244.396,4420.29-1153.799,4666.182-1090.254"/>
		<path style="opacity:0.4581;fill:none;stroke:#00AFFC;stroke-width:19.6968;stroke-miterlimit:10;" d="M-2208.957,1175.469
			c234.255-354.428,2804.557,888.84,3198.777,458.719c800.176-873.047,1951.232,717.312,2607.629-19.146
			C4184.911,955.927,5273.187-276.666,5698.459-736.207c225.496-243.666,4386.486-1164.166,4655.189-1080.681"/>
		<path style="opacity:0.4645;fill:none;stroke:#00AFFC;stroke-width:19.9742;stroke-miterlimit:10;" d="M-2235.169,1157.078
			c229.212-358.837,2769.575,866.223,3165.014,437.167c802.651-870.884,1968.718,717.713,2625.961-18.005
			c588.22-658.454,1668.46-1875.12,2095.308-2333.284c226.331-242.936,4352.682-1174.532,4644.196-1071.109"/>
		<path style="opacity:0.471;fill:none;stroke:#00AFFC;stroke-width:20.2516;stroke-miterlimit:10;" d="M-2261.382,1138.687
			c224.168-363.245,2734.594,843.605,3131.252,415.616c805.125-868.721,1986.204,718.114,2644.293-16.864
			C4103.14,879.647,5175.345-321.093,5603.769-777.88c227.167-242.205,4318.877-1184.899,4633.204-1061.536"/>
		<path style="opacity:0.4774;fill:none;stroke:#00AFFC;stroke-width:20.529;stroke-miterlimit:10;" d="M-2287.594,1120.297
			c219.124-367.654,2699.612,820.988,3097.49,394.064c807.6-866.558,2003.69,718.516,2662.625-15.723
			c589.734-657.13,1653.904-1841.943,2083.904-2297.353c228.001-241.475,4285.073-1195.266,4622.212-1051.964"/>
		<path style="opacity:0.4839;fill:none;stroke:#00AFFC;stroke-width:20.8065;stroke-miterlimit:10;" d="M-2313.807,1101.906
			c214.081-372.062,2664.631,798.371,3063.727,372.512c810.074-864.395,2021.177,718.917,2680.958-14.583
			C4021.369,803.367,5077.503-365.52,5509.078-819.553c228.837-240.745,4251.27-1205.632,4611.22-1042.391"/>
		<path style="opacity:0.4903;fill:none;stroke:#00AFFC;stroke-width:21.0839;stroke-miterlimit:10;" d="M-2340.02,1083.515
			c209.037-376.471,2629.649,775.753,3029.965,350.96c812.549-862.232,2038.662,719.318,2699.29-13.442
			C3980.484,765.227,5028.583-387.733,5461.733-840.389c229.673-240.015,4217.465-1215.999,4600.227-1032.818"/>
		<path style="opacity:0.4968;fill:none;stroke:#00AFFC;stroke-width:21.3613;stroke-miterlimit:10;" d="M-2366.232,1065.124
			c203.994-380.879,2594.668,753.136,2996.203,329.409c815.023-860.069,2056.148,719.719,2717.622-12.301
			c592.006-655.144,1632.07-1792.179,2066.796-2243.457c230.508-239.285,4183.661-1226.365,4589.234-1023.246"/>
		<path style="opacity:0.5032;fill:none;stroke:#00AFFC;stroke-width:21.6387;stroke-miterlimit:10;" d="M-2392.445,1046.733
			c198.95-385.288,2559.686,730.519,2962.44,307.857c817.498-857.906,2073.634,720.121,2735.954-11.16
			C3898.712,688.948,4930.741-432.16,5367.042-882.062c231.343-238.555,4149.857-1236.732,4578.242-1013.673"/>
		<path style="opacity:0.5097;fill:none;stroke:#00AFFC;stroke-width:21.9161;stroke-miterlimit:10;" d="M-2418.657,1028.342
			c193.906-389.696,2524.705,707.901,2928.677,286.305c819.972-855.744,2091.12,720.522,2754.286-10.019
			C3857.827,650.808,4881.82-454.374,5319.697-902.898c232.179-237.824,4116.053-1247.099,4567.249-1004.101"/>
		<path style="opacity:0.5161;fill:none;stroke:#00AFFC;stroke-width:22.1935;stroke-miterlimit:10;" d="M-2444.87,1009.951
			c188.863-394.105,2489.723,685.284,2894.915,264.754c822.447-853.581,2108.606,720.923,2772.618-8.878
			C3816.941,612.668,4832.899-476.587,5272.352-923.735c233.014-237.094,4082.249-1257.465,4556.258-994.528"/>
		<path style="opacity:0.5226;fill:none;stroke:#00AFFC;stroke-width:22.471;stroke-miterlimit:10;" d="M-2471.083,991.56
			c183.819-398.513,2454.742,662.667,2861.153,243.202c824.921-851.418,2126.092,721.324,2790.95-7.737
			C3776.056,574.528,4783.979-498.801,5225.006-944.571c233.85-236.364,4048.445-1267.832,4545.265-984.956"/>
		<path style="opacity:0.529;fill:none;stroke:#00AFFC;stroke-width:22.7484;stroke-miterlimit:10;" d="M-2497.295,973.169
			c178.776-402.922,2419.76,640.05,2827.39,221.65c827.396-849.255,2143.578,721.725,2809.282-6.597
			c595.793-651.835,1595.68-1709.237,2038.283-2153.63c234.685-235.634,4014.641-1278.199,4534.272-975.383"/>
		<path style="opacity:0.5355;fill:none;stroke:#00AFFC;stroke-width:23.0258;stroke-miterlimit:10;" d="M-2523.508,954.778
			c173.732-407.33,2384.779,617.432,2793.628,200.099c829.87-847.092,2161.065,722.127,2827.615-5.456
			c596.55-651.173,1588.402-1692.649,2032.581-2135.665c235.52-234.903,3980.836-1288.565,4523.28-965.81"/>
		<path style="opacity:0.5419;fill:none;stroke:#00AFFC;stroke-width:23.3032;stroke-miterlimit:10;" d="M-2549.72,936.387
			c168.689-411.738,2349.797,594.815,2759.866,178.547c832.345-844.929,2178.551,722.528,2845.947-4.315
			C3653.399,460.108,4637.216-565.442,5082.971-1007.08c236.355-234.173,3947.032-1298.932,4512.287-956.238"/>
		<path style="opacity:0.5484;fill:none;stroke:#00AFFC;stroke-width:23.5806;stroke-miterlimit:10;" d="M-2575.933,917.996
			c163.645-416.147,2314.816,572.198,2726.104,156.995c834.819-842.766,2196.036,722.929,2864.279-3.174
			c598.064-649.849,1573.846-1659.472,2021.176-2099.734c237.191-233.443,3913.229-1309.299,4501.295-946.666"/>
		<path style="opacity:0.5548;fill:none;stroke:#00AFFC;stroke-width:23.8581;stroke-miterlimit:10;" d="M-2602.146,899.605
			c158.601-420.556,2279.834,549.58,2692.341,135.443c837.294-840.603,2213.522,723.33,2882.611-2.033
			C3571.628,383.828,4539.375-609.869,4988.28-1048.753c238.026-232.713,3879.425-1319.665,4490.302-937.093"/>
		<path style="opacity:0.5613;fill:none;stroke:#00AFFC;stroke-width:24.1355;stroke-miterlimit:10;" d="M-2628.358,881.214
			C-2474.8,456.25-383.505,1408.177,30.22,995.106c839.768-838.44,2231.009,723.732,2900.943-0.892
			c599.579-648.525,1559.29-1626.296,2009.771-2063.803c238.862-231.983,3845.621-1330.032,4479.311-927.52"/>
		<path style="opacity:0.5677;fill:none;stroke:#00AFFC;stroke-width:24.4129;stroke-miterlimit:10;" d="M-2654.571,862.823
			c148.514-429.373,2209.871,504.346,2624.816,92.34c842.243-836.277,2248.494,724.133,2919.275,0.248
			c600.336-647.863,1552.012-1609.708,2004.069-2045.838c239.697-231.253,3811.817-1340.398,4468.318-917.948"/>
		<path style="opacity:0.5742;fill:none;stroke:#00AFFC;stroke-width:24.6903;stroke-miterlimit:10;" d="M-2680.783,844.432
			c143.471-433.781,2174.89,481.729,2591.054,70.788c844.717-834.114,2265.98,724.534,2937.607,1.389
			c601.094-647.201,1544.735-1593.119,1998.366-2027.873c240.532-230.523,3778.013-1350.765,4457.325-908.375"/>
		<path style="opacity:0.5806;fill:none;stroke:#00AFFC;stroke-width:24.9677;stroke-miterlimit:10;" d="M-2706.996,826.042
			c138.427-438.19,2139.908,459.111,2557.291,49.237c847.192-831.951,2283.467,724.936,2955.94,2.53
			c601.851-646.539,1537.456-1576.531,1992.663-2009.907c241.368-229.792,3744.209-1361.132,4446.333-898.803"/>
		<path style="opacity:0.5871;fill:none;stroke:#00AFFC;stroke-width:25.2452;stroke-miterlimit:10;" d="M-2733.208,807.651
			c133.384-442.598,2104.927,436.494,2523.529,27.685c849.666-829.789,2300.953,725.337,2974.272,3.671
			C3367.2,193.129,4294.771-720.936,4751.553-1152.935c242.204-229.062,3710.405-1371.498,4435.34-889.23"/>
		<path style="opacity:0.5935;fill:none;stroke:#00AFFC;stroke-width:25.5226;stroke-miterlimit:10;" d="M-2759.421,789.26
			c128.34-447.006,2069.945,413.877,2489.766,6.133c852.141-827.626,2318.438,725.738,2992.604,4.812
			c603.365-645.215,1522.9-1543.354,1981.259-1973.977c243.039-228.332,3676.601-1381.865,4424.349-879.658"/>
		<path style="opacity:0.6;fill:none;stroke:#00AFFC;stroke-width:25.8;stroke-miterlimit:10;" d="M-2785.634,770.869
			C-2662.337,319.454-750.67,1162.128-329.63,755.45c854.615-825.463,2335.925,726.139,3010.936,5.953
			c604.123-644.553,1515.623-1526.766,1975.556-1956.011c243.874-227.602,3642.796-1392.232,4413.356-870.085"/>
		<path style="opacity:0.6065;fill:none;stroke:#00AFFC;stroke-width:26.0774;stroke-miterlimit:10;" d="M-2811.846,752.478
			c118.253-455.823,1999.982,368.642,2422.242-36.97c857.09-823.3,2353.411,726.54,3029.268,7.093
			C3244.544,78.71,4148.008-787.577,4609.518-1215.445c244.709-226.871,3608.992-1402.598,4402.363-860.512"/>
		<path style="opacity:0.6129;fill:none;stroke:#00AFFC;stroke-width:26.3548;stroke-miterlimit:10;" d="M-2838.059,734.087
			c113.209-460.232,1965.001,346.025,2388.479-58.522c859.564-821.137,2370.896,726.942,3047.6,8.234
			c605.637-643.23,1501.067-1493.59,1964.151-1920.08c245.545-226.141,3575.188-1412.965,4391.371-850.94"/>
		<path style="opacity:0.6194;fill:none;stroke:#00AFFC;stroke-width:26.6323;stroke-miterlimit:10;" d="M-2864.271,715.696
			c108.166-464.641,1930.019,323.407,2354.717-80.074c862.039-818.974,2388.383,727.343,3065.932,9.375
			C3162.773,2.43,4050.167-832.004,4514.827-1257.118c246.38-225.411,3541.384-1423.331,4380.378-841.367"/>
		<path style="opacity:0.6258;fill:none;stroke:#00AFFC;stroke-width:26.9097;stroke-miterlimit:10;" d="M-2890.484,697.305
			c103.122-469.049,1895.038,300.79,2320.954-101.625c864.513-816.811,2405.869,727.744,3084.265,10.516
			C3121.887-35.71,4001.246-854.217,4467.481-1277.954c247.215-224.681,3507.58-1433.698,4369.386-831.795"/>
		<path style="opacity:0.6323;fill:none;stroke:#00AFFC;stroke-width:27.1871;stroke-miterlimit:10;" d="M-2916.697,678.914
			c98.079-473.457,1860.056,278.173,2287.192-123.177c866.988-814.648,2423.354,728.145,3102.597,11.657
			C3081.001-73.85,3952.325-876.431,4420.136-1298.79c248.051-223.951,3473.776-1444.065,4358.394-822.222"/>
		<path style="opacity:0.6387;fill:none;stroke:#00AFFC;stroke-width:27.4645;stroke-miterlimit:10;" d="M-2942.909,660.523
			c93.035-477.866,1825.075,255.556,2253.43-144.729c869.462-812.485,2440.84,728.547,3120.929,12.798
			C3040.116-111.99,3903.404-898.644,4372.791-1319.627c248.886-223.221,3439.972-1454.431,4347.401-812.65"/>
		<path style="opacity:0.6452;fill:none;stroke:#00AFFC;stroke-width:27.7419;stroke-miterlimit:10;" d="M-2969.122,642.132
			c87.991-482.274,1790.093,232.938,2219.667-166.28C122.482-334.47,1708.872,1204.8,2389.807,489.79
			C2999.23-150.13,3854.483-920.858,4325.445-1340.463c249.722-222.49,3406.168-1464.798,4336.409-803.077"/>
		<path style="opacity:0.6516;fill:none;stroke:#00AFFC;stroke-width:28.0194;stroke-miterlimit:10;" d="M-2995.334,623.741
			c82.948-486.683,1755.112,210.321,2185.905-187.832c874.411-808.159,2475.813,729.349,3157.593,15.079
			C2958.345-188.27,3805.563-943.071,4278.1-1361.3c250.557-221.76,3372.364-1475.165,4325.417-793.505"/>
		<path style="opacity:0.6581;fill:none;stroke:#00AFFC;stroke-width:28.2968;stroke-miterlimit:10;" d="M-3021.547,605.35
			c77.904-491.091,1720.13,187.704,2152.143-209.384c876.886-805.996,2493.298,729.75,3175.925,16.22
			C2917.459-226.41,3756.642-965.285,4230.755-1382.136c251.393-221.03,3338.56-1485.531,4314.424-783.932"/>
		<path style="opacity:0.6645;fill:none;stroke:#00AFFC;stroke-width:28.5742;stroke-miterlimit:10;" d="M-3047.76,586.959
			c72.861-495.5,1685.149,165.086,2118.38-230.935c879.36-803.833,2510.785,730.152,3194.257,17.361
			C2876.574-264.549,3707.721-987.498,4183.41-1402.972c252.228-220.3,3304.756-1495.898,4303.431-774.36"/>
		<path style="opacity:0.671;fill:none;stroke:#00AFFC;stroke-width:28.8516;stroke-miterlimit:10;" d="M-3073.972,568.568
			c67.817-499.908,1650.167,142.469,2084.618-252.487c881.835-801.671,2528.271,730.553,3212.59,18.502
			C2835.688-302.689,3658.8-1009.712,4136.064-1423.809c253.063-219.57,3270.952-1506.265,4292.438-764.787"/>
		<path style="opacity:0.6774;fill:none;stroke:#00AFFC;stroke-width:29.129;stroke-miterlimit:10;" d="M-3100.185,550.177
			c62.773-504.317,1615.186,119.852,2050.855-274.039c884.309-799.508,2545.757,730.954,3230.922,19.643
			c613.21-636.61,1428.287-1327.707,1907.126-1740.427c253.899-218.839,3237.148-1516.631,4281.447-755.214"/>
		<path style="opacity:0.6839;fill:none;stroke:#00AFFC;stroke-width:29.4065;stroke-miterlimit:10;" d="M-3126.397,531.786
			c57.73-508.725,1580.204,97.234,2017.093-295.591C-222.52-561.149,1453.938,967.551,2139.95,256.98
			c613.967-635.949,1421.009-1311.119,1901.424-1722.461c254.734-218.109,3203.344-1526.998,4270.454-745.642"/>
		<path style="opacity:0.6903;fill:none;stroke:#00AFFC;stroke-width:29.6839;stroke-miterlimit:10;" d="M-3152.61,513.396
			c52.686-513.134,1545.223,74.617,1983.33-317.142c889.258-795.182,2580.729,731.757,3267.586,21.924
			c614.725-635.287,1413.731-1294.53,1895.721-1704.496c255.569-217.379,3169.54-1537.365,4259.462-736.069"/>
		<path style="opacity:0.6968;fill:none;stroke:#00AFFC;stroke-width:29.9613;stroke-miterlimit:10;" d="M-3178.822,495.005
			c47.643-517.542,1510.241,52,1949.568-338.694c891.733-793.019,2598.215,732.158,3285.918,23.065
			c615.482-634.625,1406.453-1277.942,1890.019-1686.531c256.405-216.649,3135.735-1547.731,4248.469-726.497"/>
		<path style="opacity:0.7032;fill:none;stroke:#00AFFC;stroke-width:30.2387;stroke-miterlimit:10;" d="M-3205.035,476.614
			c42.599-521.951,1475.26,29.383,1915.806-360.246c894.207-790.856,2615.701,732.559,3304.25,24.206
			C2631.26-493.389,3414.196-1120.78,3899.338-1527.991c257.24-215.919,3101.932-1558.098,4237.478-716.924"/>
		<path style="opacity:0.7097;fill:none;stroke:#00AFFC;stroke-width:30.5161;stroke-miterlimit:10;" d="M-3231.247,458.223
			c37.555-526.359,1440.278,6.765,1882.043-381.797c896.682-788.693,2633.187,732.96,3322.583,25.347
			c616.997-633.301,1391.897-1244.765,1878.614-1650.6c258.075-215.188,3068.128-1568.464,4226.484-707.352"/>
		<path style="opacity:0.7161;fill:none;stroke:#00AFFC;stroke-width:30.7935;stroke-miterlimit:10;" d="M-3257.46,439.832
			c32.512-530.768,1405.297-15.852,1848.281-403.349c899.156-786.53,2650.673,733.362,3340.915,26.488
			c617.754-632.639,1384.619-1228.177,1872.912-1632.634c258.911-214.458,3034.323-1578.831,4215.492-697.779"/>
		<path style="opacity:0.7226;fill:none;stroke:#00AFFC;stroke-width:31.071;stroke-miterlimit:10;" d="M-3283.673,421.441
			c27.469-535.176,1370.315-38.469,1814.519-424.901c901.631-784.367,2668.159,733.763,3359.247,27.629
			C2508.604-607.808,3267.434-1187.42,3757.302-1590.5c259.746-213.728,3000.52-1589.198,4204.5-688.207"/>
		<path style="opacity:0.729;fill:none;stroke:#00AFFC;stroke-width:31.3484;stroke-miterlimit:10;" d="M-3309.885,403.05
			c22.425-539.585,1335.334-61.087,1780.756-446.452c904.105-782.204,2685.645,734.164,3377.579,28.769
			c619.268-631.315,1370.063-1195,1861.507-1596.704c260.582-212.998,2966.715-1599.564,4193.507-678.634"/>
		<path style="opacity:0.7355;fill:none;stroke:#00AFFC;stroke-width:31.6258;stroke-miterlimit:10;" d="M-3336.098,384.659
			c17.381-543.993,1300.352-83.704,1746.994-468.004c906.58-780.042,2703.131,734.565,3395.911,29.91
			c620.026-630.653,1362.785-1178.412,1855.804-1578.738c261.417-212.268,2932.911-1609.931,4182.515-669.062"/>
		<path style="opacity:0.7419;fill:none;stroke:#00AFFC;stroke-width:31.9032;stroke-miterlimit:10;" d="M-3362.31,366.268
			c12.338-548.402,1265.371-106.321,1713.231-489.556c909.054-777.878,2720.617,734.967,3414.243,31.051
			c620.783-629.991,1355.507-1161.824,1850.102-1560.773c262.252-211.538,2899.107-1620.298,4171.522-659.489"/>
		<path style="opacity:0.7484;fill:none;stroke:#00AFFC;stroke-width:32.1806;stroke-miterlimit:10;" d="M-3388.523,347.877
			c7.294-552.81,1230.389-128.938,1679.469-511.107c911.529-775.716,2738.103,735.368,3432.575,32.192
			c621.54-629.329,1348.229-1145.236,1844.399-1542.808c263.088-210.807,2865.303-1630.664,4160.53-649.916"/>
		<path style="opacity:0.7548;fill:none;stroke:#00AFFC;stroke-width:32.4581;stroke-miterlimit:10;" d="M-3414.736,329.486
			c2.25-557.219,1195.408-151.556,1645.707-532.659C-855.026-976.726,986.56,532.596,1681.879-169.84
			c622.297-628.667,1340.952-1128.647,1838.697-1524.842c263.923-210.077,2831.499-1641.031,4149.538-640.344"/>
		<path style="opacity:0.7613;fill:none;stroke:#00AFFC;stroke-width:32.7355;stroke-miterlimit:10;" d="M-3440.948,311.095
			c-2.793-561.627,1160.426-174.173,1611.944-554.211c916.478-771.39,2773.075,736.17,3469.24,34.474
			c623.055-628.005,1333.673-1112.059,1832.994-1506.877c264.758-209.347,2797.695-1651.397,4138.545-630.771"/>
		<path style="opacity:0.7677;fill:none;stroke:#00AFFC;stroke-width:33.0129;stroke-miterlimit:10;" d="M-3467.161,292.704
			c-7.837-566.036,1125.445-196.79,1578.182-575.763c918.952-769.227,2790.561,736.572,3487.572,35.614
			c623.812-627.344,1326.395-1095.471,1827.292-1488.911c265.594-208.617,2763.891-1661.764,4127.553-621.199"/>
		<path style="opacity:0.7742;fill:none;stroke:#00AFFC;stroke-width:33.2903;stroke-miterlimit:10;" d="M-3493.373,274.313
			c-12.88-570.444,1090.463-219.408,1544.419-597.314c921.427-767.064,2808.046,736.973,3505.904,36.755
			c624.569-626.682,1319.118-1078.883,1821.589-1470.946c266.429-207.887,2730.087-1672.131,4116.561-611.626"/>
		<path style="opacity:0.7806;fill:none;stroke:#00AFFC;stroke-width:33.5677;stroke-miterlimit:10;" d="M-3519.586,255.923
			C-3537.51-318.93-2464.104,13.898-2008.929-362.943c923.902-764.901,2825.533,737.374,3524.236,37.896
			c625.327-626.02,1311.839-1062.294,1815.887-1452.981c267.264-207.156,2696.283-1682.497,4105.567-602.054"/>
		<path style="opacity:0.7871;fill:none;stroke:#00AFFC;stroke-width:33.8452;stroke-miterlimit:10;" d="M-3545.798,237.531
			c-22.968-579.261,1020.5-264.642,1476.895-640.418c926.376-762.738,2843.019,737.775,3542.568,39.037
			c626.084-625.358,1304.562-1045.706,1810.184-1435.015c268.1-206.426,2662.479-1692.864,4094.576-592.481"/>
		<path style="opacity:0.7935;fill:none;stroke:#00AFFC;stroke-width:34.1226;stroke-miterlimit:10;" d="M-3572.011,219.141
			c-28.011-583.67,985.519-287.259,1443.132-661.969c928.85-760.575,2860.505,738.177,3560.9,40.178
			c626.841-624.696,1297.284-1029.118,1804.482-1417.05c268.935-205.696,2628.675-1703.23,4083.583-582.908"/>
		<path style="opacity:0.8;fill:none;stroke:#00AFFC;stroke-width:34.4;stroke-miterlimit:10;" d="M-3598.223,200.75
			c-33.055-588.078,950.537-309.877,1409.37-683.521c931.325-758.412,2877.991,738.578,3579.232,41.319
			c627.599-624.034,1290.006-1012.53,1798.779-1399.085c269.771-204.966,2594.871-1713.597,4072.591-573.336"/>
		<path style="opacity:0.8065;fill:none;stroke:#00AFFC;stroke-width:34.6774;stroke-miterlimit:10;" d="M-3624.436,182.359
			c-38.098-592.487,915.555-332.494,1375.607-705.073c933.8-756.249,2895.477,738.979,3597.565,42.459
			c628.356-623.372,1282.728-995.941,1793.077-1381.119c270.606-204.236,2561.067-1723.964,4061.598-563.763"/>
		<path style="opacity:0.8129;fill:none;stroke:#00AFFC;stroke-width:34.9548;stroke-miterlimit:10;" d="M-3650.649,163.968
			c-43.142-596.895,880.574-355.111,1341.845-726.625c936.274-754.086,2912.963,739.38,3615.897,43.6
			c629.113-622.71,1275.45-979.353,1787.374-1363.154c271.442-203.506,2527.263-1734.331,4050.606-554.191"/>
		<path style="opacity:0.8194;fill:none;stroke:#00AFFC;stroke-width:35.2323;stroke-miterlimit:10;" d="M-3676.861,145.577
			c-48.185-601.304,845.593-377.729,1308.083-748.176c938.749-751.924,2930.449,739.781,3634.229,44.741
			c629.87-622.048,1268.172-962.765,1781.672-1345.188c272.277-202.775,2493.458-1744.697,4039.614-544.618"/>
		<path style="opacity:0.8258;fill:none;stroke:#00AFFC;stroke-width:35.5097;stroke-miterlimit:10;" d="M-3703.074,127.186
			c-53.229-605.712,810.611-400.346,1274.32-769.728c941.223-749.761,2947.935,740.183,3652.561,45.882
			c630.628-621.386,1260.894-946.176,1775.969-1327.223c273.112-202.045,2459.655-1755.064,4028.621-535.046"/>
		<path style="opacity:0.8323;fill:none;stroke:#00AFFC;stroke-width:35.7871;stroke-miterlimit:10;" d="M-3729.286,108.795
			c-58.272-610.121,775.63-422.963,1240.558-791.28c943.698-747.598,2965.421,740.584,3670.893,47.023
			c631.385-620.724,1253.616-929.588,1770.267-1309.258c273.948-201.315,2425.851-1765.43,4017.629-525.473"/>
		<path style="opacity:0.8387;fill:none;stroke:#00AFFC;stroke-width:36.0645;stroke-miterlimit:10;" d="M-3755.499,90.404
			c-63.316-614.529,740.648-445.58,1206.795-812.831c946.172-745.435,2982.907,740.985,3689.225,48.164
			c632.142-620.062,1246.338-913,1764.564-1291.292c274.783-200.585,2392.047-1775.797,4006.636-515.901"/>
		<path style="opacity:0.8452;fill:none;stroke:#00AFFC;stroke-width:36.3419;stroke-miterlimit:10;" d="M-3781.712,72.013
			c-68.36-618.938,705.667-468.198,1173.033-834.383c948.647-743.272,3000.393,741.386,3707.558,49.304
			c632.899-619.401,1239.06-896.412,1758.862-1273.327c275.618-199.854,2358.243-1786.164,3995.644-506.328"/>
		<path style="opacity:0.8516;fill:none;stroke:#00AFFC;stroke-width:36.6194;stroke-miterlimit:10;" d="M-3807.924,53.622
			c-73.403-623.346,670.685-490.815,1139.271-855.935c951.121-741.109,3017.879,741.788,3725.89,50.445
			c633.657-618.739,1231.782-879.823,1753.159-1255.362c276.454-199.125,2324.438-1796.53,3984.651-496.756"/>
		<path style="opacity:0.8581;fill:none;stroke:#00AFFC;stroke-width:36.8968;stroke-miterlimit:10;" d="M-3834.137,35.231
			c-78.447-627.755,635.704-513.432,1105.508-877.486c953.596-738.946,3035.365,742.189,3744.222,51.586
			c634.414-618.077,1224.504-863.235,1747.457-1237.396c277.289-198.394,2290.634-1806.897,3973.659-487.183"/>
		<path style="opacity:0.8645;fill:none;stroke:#00AFFC;stroke-width:37.1742;stroke-miterlimit:10;" d="M-3860.349,16.84
			c-83.49-632.163,600.722-536.05,1071.746-899.038c956.07-736.783,3052.851,742.59,3762.554,52.727
			c635.171-617.415,1217.226-846.647,1741.754-1219.431c278.125-197.664,2256.83-1817.264,3962.667-477.61"/>
		<path style="opacity:0.871;fill:none;stroke:#00AFFC;stroke-width:37.4516;stroke-miterlimit:10;" d="M-3886.562-1.551
			c-88.534-636.572,565.741-558.667,1037.983-920.59c958.545-734.62,3070.337,742.991,3780.886,53.868
			c635.929-616.753,1209.948-830.059,1736.052-1201.466c278.96-196.934,2223.026-1827.63,3951.674-468.038"/>
		<path style="opacity:0.8774;fill:none;stroke:#00AFFC;stroke-width:37.729;stroke-miterlimit:10;" d="M-3912.774-19.942
			c-93.578-640.98,530.759-581.284,1004.221-942.141c961.019-732.457,3087.823,743.393,3799.218,55.009
			c636.686-616.091,1202.67-813.47,1730.35-1183.5c279.795-196.204,2189.222-1837.997,3940.681-458.465"/>
		<path style="opacity:0.8839;fill:none;stroke:#00AFFC;stroke-width:38.0065;stroke-miterlimit:10;" d="M-3938.987-38.333
			c-98.621-645.389,495.778-603.902,970.458-963.693c963.494-730.294,3105.309,743.794,3817.55,56.149
			c637.443-615.429,1195.392-796.882,1724.647-1165.535c280.631-195.474,2155.418-1848.364,3929.689-448.893"/>
		<path style="opacity:0.8903;fill:none;stroke:#00AFFC;stroke-width:38.2839;stroke-miterlimit:10;" d="M-3965.2-56.723
			c-103.665-649.797,460.796-626.519,936.696-985.245c965.968-728.131,3122.795,744.195,3835.883,57.29
			c638.2-614.767,1188.114-780.294,1718.945-1147.569c281.466-194.743,2121.614-1858.73,3918.697-439.32"/>
		<path style="opacity:0.8968;fill:none;stroke:#00AFFC;stroke-width:38.5613;stroke-miterlimit:10;" d="M-3991.412-75.114
			c-108.708-654.206,425.814-649.136,902.934-1006.797c968.443-725.969,3140.281,744.596,3854.215,58.431
			c638.958-614.105,1180.836-763.705,1713.242-1129.604c282.301-194.013,2087.81-1869.097,3907.704-429.748"/>
		<path style="opacity:0.9032;fill:none;stroke:#00AFFC;stroke-width:38.8387;stroke-miterlimit:10;" d="M-4017.625-93.505
			c-113.752-658.614,390.833-671.753,869.171-1028.348c970.917-723.806,3157.767,744.998,3872.547,59.572
			c639.715-613.443,1173.558-747.117,1707.54-1111.639c283.137-193.283,2054.006-1879.463,3896.712-420.175"/>
		<path style="opacity:0.9097;fill:none;stroke:#00AFFC;stroke-width:39.1161;stroke-miterlimit:10;" d="M-4043.837-111.896
			c-118.795-663.022,355.852-694.371,835.409-1049.9c973.392-721.643,3175.253,745.399,3890.879,60.713
			c640.472-612.781,1166.281-730.529,1701.837-1093.673c283.972-192.553,2020.202-1889.83,3885.72-410.603"/>
		<path style="opacity:0.9161;fill:none;stroke:#00AFFC;stroke-width:39.3935;stroke-miterlimit:10;" d="M-4070.05-130.287
			c-123.839-667.431,320.87-716.988,801.647-1071.452c975.866-719.48,3192.739,745.8,3909.211,61.854
			c641.23-612.119,1159.002-713.94,1696.135-1075.708c284.808-191.823,1986.398-1900.197,3874.727-401.03"/>
		<path style="opacity:0.9226;fill:none;stroke:#00AFFC;stroke-width:39.671;stroke-miterlimit:10;" d="M-4096.263-148.678
			c-128.882-671.84,285.889-739.605,767.884-1093.003c978.341-717.317,3210.225,746.201,3927.543,62.995
			c641.987-611.457,1151.725-697.352,1690.432-1057.743c285.643-191.092,1952.594-1910.563,3863.735-391.457"/>
		<path style="opacity:0.929;fill:none;stroke:#00AFFC;stroke-width:39.9484;stroke-miterlimit:10;" d="M-4122.475-167.069
			c-133.926-676.248,250.907-762.223,734.122-1114.555c980.815-715.154,3227.711,746.603,3945.875,64.135
			c642.744-610.795,1144.447-680.764,1684.73-1039.777c286.478-190.362,1918.79-1920.93,3852.742-381.885"/>
		<path style="opacity:0.9355;fill:none;stroke:#00AFFC;stroke-width:40.2258;stroke-miterlimit:10;" d="M-4148.688-185.46
			c-138.97-680.656,215.925-784.84,700.359-1136.107c983.29-712.991,3245.197,747.004,3964.208,65.276
			c643.501-610.133,1137.169-664.176,1679.027-1021.812c287.314-189.632,1884.986-1931.297,3841.75-372.312"/>
		<path style="opacity:0.9419;fill:none;stroke:#00AFFC;stroke-width:40.5032;stroke-miterlimit:10;" d="M-4174.9-203.851
			c-144.013-685.065,180.944-807.457,666.597-1157.658c985.764-710.828,3262.683,747.405,3982.54,66.417
			c644.259-609.472,1129.891-647.587,1673.325-1003.846c288.149-188.902,1851.182-1941.663,3830.758-362.74"/>
		<path style="opacity:0.9484;fill:none;stroke:#00AFFC;stroke-width:40.7806;stroke-miterlimit:10;" d="M-4201.113-222.242
			c-149.057-689.474,145.962-830.075,632.834-1179.21c988.239-708.665,3280.169,747.806,4000.872,67.558
			c645.016-608.81,1122.613-630.999,1667.622-985.881c288.984-188.172,1817.378-1952.03,3819.765-353.167"/>
		<path style="opacity:0.9548;fill:none;stroke:#00AFFC;stroke-width:41.0581;stroke-miterlimit:10;" d="M-4227.325-240.633
			c-154.101-693.882,110.981-852.692,599.072-1200.762c990.713-706.502,3297.655,748.208,4019.204,68.699
			c645.773-608.148,1115.335-614.411,1661.92-967.916c289.82-187.441,1783.573-1962.396,3808.772-343.595"/>
		<path style="opacity:0.9613;fill:none;stroke:#00AFFC;stroke-width:41.3355;stroke-miterlimit:10;" d="M-4253.538-259.024
			c-159.144-698.29,76-875.309,565.31-1222.313c993.188-704.339,3315.141,748.609,4037.536,69.84
			c646.531-607.486,1108.057-597.823,1656.217-949.95c290.655-186.711,1749.77-1972.763,3797.781-334.022"/>
		<path style="opacity:0.9677;fill:none;stroke:#00AFFC;stroke-width:41.6129;stroke-miterlimit:10;" d="M-4279.75-277.415
			c-164.188-702.699,41.018-897.926,531.547-1243.865c995.662-702.176,3332.627,749.01,4055.868,70.98
			c647.288-606.824,1100.779-581.234,1650.515-931.985c291.49-185.981,1715.966-1983.13,3786.788-324.449"/>
		<path style="opacity:0.9742;fill:none;stroke:#00AFFC;stroke-width:41.8903;stroke-miterlimit:10;" d="M-4305.963-295.806
			c-169.231-707.107,6.037-920.544,497.785-1265.417c998.137-700.014,3350.113,749.411,4074.2,72.121
			c648.045-606.162,1093.501-564.646,1644.812-914.02c292.326-185.251,1682.161-1993.496,3775.795-314.877"/>
		<path style="opacity:0.9806;fill:none;stroke:#00AFFC;stroke-width:42.1677;stroke-miterlimit:10;" d="M-4332.176-314.197
			c-174.275-711.516-28.945-943.161,464.023-1286.969c1000.611-697.851,3367.599,749.813,4092.532,73.262
			c648.802-605.5,1086.223-548.058,1639.11-896.054c293.161-184.521,1648.357-2003.863,3764.803-305.304"/>
		<path style="opacity:0.9871;fill:none;stroke:#00AFFC;stroke-width:42.4452;stroke-miterlimit:10;" d="M-4358.388-332.587
			c-179.318-715.924-63.927-965.778,430.26-1308.52c1003.086-695.688,3385.085,750.214,4110.865,74.403
			c649.56-604.838,1078.945-531.469,1633.407-878.089c293.997-183.791,1614.553-2014.23,3753.811-295.732"/>
		<path style="opacity:0.9935;fill:none;stroke:#00AFFC;stroke-width:42.7226;stroke-miterlimit:10;" d="M-4384.601-350.978
			c-184.362-720.333-98.908-988.396,396.498-1330.072c1005.56-693.525,3402.571,750.615,4129.197,75.544
			c650.317-604.176,1071.667-514.881,1627.705-860.123c294.832-183.06,1580.749-2024.596,3742.818-286.159"/>
		<path style="fill:none;stroke:#00AFFC;stroke-width:43;stroke-miterlimit:10;" d="M-4410.813-369.369
			c-189.406-724.741-133.89-1011.013,362.735-1351.624c1008.035-691.362,3420.057,751.016,4147.529,76.685
			c651.074-603.514,1064.389-498.293,1622.002-842.158c295.667-182.33,1546.945-2034.963,3731.826-276.587"/>
	</g>
</g>
</svg>
