<svg width="322" height="68" viewBox="0 0 322 68" fill="none" xmlns="http://www.w3.org/2000/svg">
<g clip-path="url(#clip0_143_139)">
<path d="M91.8495 22.0498C92.4563 21.2785 93.1333 20.5684 93.8425 19.8912C95.9613 17.8637 98.434 16.4479 101.366 15.8933C103.4 15.5083 105.447 15.7279 107.474 15.9874C110.221 16.3381 112.86 17.0738 115.307 18.3813C118.848 20.2733 121.42 23.0422 123.086 26.6152C124.38 29.3926 125.006 32.3197 125.224 35.3595C125.345 37.0462 125.327 38.7287 125.33 40.4125C125.346 49.201 125.338 57.9896 125.338 66.7781C125.338 66.992 125.33 67.2059 125.333 67.4197C125.336 67.7662 125.162 67.9729 124.81 67.9658C122.287 67.9188 119.748 68.2096 117.266 67.4611C113.766 66.4046 111.8 63.6343 111.737 60.1354C111.635 54.3895 111.734 48.6393 111.677 42.8919C111.657 40.7804 111.698 38.6616 111.537 36.5586C111.331 33.8596 110.389 31.4172 108.281 29.5266C106.81 28.2078 105.015 27.5776 103.079 27.2824C101.032 26.9702 99.0613 27.1869 97.1823 28.1023C95.3925 28.9734 94.0794 30.3051 93.1728 32.0132C92.1244 33.9879 91.6609 36.0995 91.6696 38.3323C91.6755 40.1345 91.5117 41.9367 91.5717 43.7403C91.8261 51.4324 91.6141 59.1274 91.6813 66.8209C91.6916 67.9815 91.6813 67.9915 90.5203 67.9815C88.4527 67.9658 86.369 68.1341 84.3292 67.7063C82.1914 67.2572 80.3358 66.3247 79.1602 64.417C78.3779 63.1481 77.9655 61.7565 77.9509 60.2865C77.9173 56.7477 77.9333 53.2089 77.9348 49.6687C77.9407 33.5174 77.9465 17.3647 77.9523 1.21338C77.9523 0.00573827 77.9523 -0.0127969 79.1865 0.0100156C80.9616 0.0428087 82.7383 -0.0897894 84.512 0.141188C88.3445 0.638787 91.2412 3.14247 91.5877 7.03629C91.7076 8.39078 91.6843 9.73958 91.6916 11.0898C91.712 14.486 91.7003 17.8837 91.7018 21.2799C91.7018 21.5151 91.7018 21.7504 91.7018 21.9857C91.7515 22.0085 91.8012 22.0299 91.851 22.0527L91.8495 22.0498Z" fill="#003494"/>
<path d="M62.7329 10.1972C62.7329 11.8597 62.7285 13.5222 62.7358 15.1846C62.7388 15.8975 62.8016 15.9603 63.5313 15.9631C65.7247 15.9702 67.9166 15.9631 70.1099 15.9674C71.0633 15.9674 71.075 15.9817 71.0779 16.9355C71.0808 18.2658 71.0545 19.596 71.0867 20.9263C71.1423 23.1819 69.9944 24.7645 68.1461 25.9251C66.7628 26.7934 65.1924 27.1327 63.5649 27.2211C62.7826 27.2639 62.7446 27.2753 62.7446 28.0467C62.7446 36.1936 62.7446 44.3405 62.749 52.4889C62.749 52.7498 62.7446 53.0164 62.7929 53.2702C63.1833 55.3077 63.812 55.945 66.542 56.1204C67.9005 56.2073 69.2706 56.1346 70.6349 56.1403C71.502 56.1432 71.5298 56.176 71.5283 57.03C71.5254 59.287 71.5283 61.5426 71.5166 63.7997C71.5122 64.5596 71.423 65.3181 71.2461 66.0581C70.999 67.0889 70.5822 67.4326 69.5177 67.4383C66.9836 67.4497 64.4481 67.4882 61.917 67.4112C59.6973 67.3427 57.5127 67.0262 55.4524 66.1109C52.8745 64.9659 51.2295 63.0525 50.3492 60.4662C49.6897 58.5299 49.4689 56.5239 49.4397 54.5021C49.4221 53.2431 49.2774 51.9899 49.3066 50.7323C49.5698 39.4529 49.368 28.1721 49.4499 16.8913C49.4748 13.5065 50.7177 10.6079 53.1231 8.15694C54.1013 7.15889 55.0839 6.18793 56.3078 5.46934C57.4835 4.77926 58.7264 4.3672 60.117 4.42566C60.7487 4.45275 61.3847 4.45132 62.0164 4.42566C62.556 4.40285 62.749 4.62242 62.7431 5.13998C62.7241 6.82668 62.7358 8.51339 62.7358 10.1987H62.7373L62.7329 10.1972Z" fill="#003494"/>
<path d="M144.54 46.3452C146.611 46.3438 148.681 46.3452 151.296 46.3452C153.258 46.2725 155.764 46.3951 158.273 46.244C160.462 46.1114 162.64 45.9674 164.808 45.638C167.471 45.2331 170.064 44.6186 172.462 43.3824C174.966 42.0921 176.73 40.1858 177.483 37.4754C178.33 34.4285 178.059 31.3887 177.237 28.4002C176.16 24.4808 173.959 21.2385 170.722 18.6636C167.196 15.8605 163.124 14.2978 158.652 13.8772C155.054 13.5393 151.455 13.8002 147.947 14.8225C142.771 16.331 138.46 19.0713 135.185 23.2817C132.361 26.9132 130.699 31.0294 129.937 35.5106C129.361 38.8997 129.176 42.2931 129.679 45.7121C130.099 48.5609 130.954 51.2727 132.317 53.8177C133.829 56.6422 135.808 59.1188 138.29 61.2133C141.788 64.1647 145.79 66.1608 150.293 67.1232C152.856 67.6707 155.459 67.9359 158.117 67.7548C160.939 67.5623 163.741 67.3584 166.485 66.6398C168.578 66.0909 170.533 65.2882 172.25 63.9722C174.023 62.612 175.129 60.8554 175.648 58.721C175.869 57.8142 175.953 56.8917 176.009 55.9735C176.079 54.8144 176.051 53.6466 176.025 52.4846C176.01 51.8772 175.613 51.7133 175.086 52.0526C174.985 52.1182 174.899 52.2052 174.806 52.2807C173.016 53.7279 170.966 54.7103 168.768 55.3847C165.895 56.2644 162.938 56.6565 159.926 56.7406C157.02 56.8204 154.181 56.5381 151.477 55.446C147.614 53.8862 144.895 51.2855 143.802 47.2506C143.562 46.3666 143.574 46.348 144.54 46.348V46.3452ZM143.53 36.3162C143.635 35.1827 143.704 34.0478 144.028 32.9428C145.069 29.3983 147.228 26.8062 150.765 25.3804C152.639 24.6248 154.609 24.5506 156.586 24.716C158.24 24.8543 159.854 25.178 161.347 25.9664C163.327 27.0115 164.506 28.5942 164.905 30.7414C165.066 31.6097 165.149 32.4737 164.911 33.352C164.621 34.4156 163.96 35.1499 162.961 35.6176C161.49 36.3062 159.902 36.5743 158.304 36.7454C155.274 37.069 152.231 37.0961 149.754 37.0619C147.529 37.0619 145.872 37.0676 144.215 37.059C143.506 37.0562 143.468 36.9821 143.53 36.3162Z" fill="#003494"/>
<path d="M44.7562 42.8449C44.6685 39.8279 44.9258 36.4303 44.4798 33.0455C44.0602 29.8617 43.2589 26.7905 41.6212 23.9832C39.7729 20.8165 37.1482 18.4454 33.7572 16.8942C30.0212 15.1847 26.0366 14.65 21.9657 14.5587C20.5049 14.5259 19.0486 14.6614 17.598 14.8282C14.2509 15.2117 11.0194 15.9859 8.15048 17.7881C4.37205 20.1635 2.18161 23.4357 2.3527 27.9682C2.38048 28.6826 2.44774 28.7852 3.13207 28.7866C7.42082 28.7938 11.7096 28.7838 15.9969 28.7924C16.4604 28.7924 16.7309 28.6455 16.8113 28.1807C16.9268 27.5106 17.3816 27.0942 17.9855 26.8233C18.6523 26.5239 19.3512 26.32 20.0853 26.2445C21.663 26.0805 23.2466 26.0506 24.8273 26.1176C26.0629 26.1689 27.3044 26.243 28.4932 26.6637C29.4275 26.9944 30.0154 27.6261 30.2274 28.5343C30.6544 30.3735 30.321 32.1187 29.3647 33.7484C29.0576 34.2716 28.5999 34.6623 28.0998 35.0145C26.8745 35.8771 25.4239 35.9883 24.007 36.1808C19.9522 36.7311 15.9194 37.3856 11.9728 38.4677C9.8613 39.0466 7.79515 39.7581 5.87816 40.826C3.63508 42.075 1.80143 43.7146 0.903615 46.1256C-0.337827 49.4634 -0.288111 52.8454 0.937247 56.176C2.16845 59.5237 4.50658 62.0317 7.56266 63.8966C11.4858 66.2905 15.8346 67.3128 20.4172 67.4183C22.5813 67.4682 24.7469 67.4996 26.9154 67.3199C30.7158 67.0048 34.231 65.8884 37.3192 63.7184C42.2499 60.2537 44.5895 55.4289 44.743 49.5618C44.7986 47.4488 44.7518 45.3343 44.7518 42.8449H44.7562ZM31.4513 47.4744C31.3972 48.5309 31.5361 49.8569 31.3358 51.1857C30.9088 53.9988 29.3179 55.8138 26.5148 56.5581C24.9341 56.9773 23.3095 57.0999 21.666 56.9203C20.9173 56.8376 20.1584 56.8504 19.4156 56.7078C17.8875 56.417 16.4545 55.9365 15.3491 54.7873C13.6924 53.0664 13.2888 49.1012 16.1445 47.4117C17.7691 46.4507 19.5194 45.9659 21.3443 45.638C23.0419 45.3329 24.7586 45.1319 26.4533 44.7997C27.9609 44.5045 29.4422 44.1367 30.8825 43.6105C31.4147 43.4166 31.444 43.4238 31.4498 43.9998C31.4601 45.0677 31.4527 46.137 31.4527 47.4744H31.4513Z" fill="#003494"/>
</g>
<path d="M315.854 65.032V57.808H316.974V58.984H317.03C317.207 58.5734 317.454 58.2467 317.772 58.004C318.098 57.7614 318.532 57.64 319.074 57.64C319.82 57.64 320.408 57.8827 320.838 58.368C321.276 58.844 321.496 59.5207 321.496 60.398V65.032H320.376V60.594C320.376 59.2967 319.83 58.648 318.738 58.648C318.514 58.648 318.294 58.676 318.08 58.732C317.874 58.788 317.688 58.872 317.52 58.984C317.352 59.096 317.216 59.2407 317.114 59.418C317.02 59.586 316.974 59.7867 316.974 60.02V65.032H315.854Z" fill="#1A1919"/>
<path d="M310.749 65.2C310.264 65.2 309.821 65.1114 309.419 64.934C309.018 64.7567 308.673 64.5047 308.383 64.178C308.103 63.842 307.884 63.4454 307.725 62.988C307.567 62.5214 307.487 61.9987 307.487 61.42C307.487 60.8507 307.567 60.3327 307.725 59.866C307.884 59.3994 308.103 59.0027 308.383 58.676C308.673 58.34 309.018 58.0834 309.419 57.906C309.821 57.7287 310.264 57.64 310.749 57.64C311.235 57.64 311.673 57.7287 312.065 57.906C312.467 58.0834 312.812 58.34 313.101 58.676C313.391 59.0027 313.615 59.3994 313.773 59.866C313.932 60.3327 314.011 60.8507 314.011 61.42C314.011 61.9987 313.932 62.5214 313.773 62.988C313.615 63.4454 313.391 63.842 313.101 64.178C312.812 64.5047 312.467 64.7567 312.065 64.934C311.673 65.1114 311.235 65.2 310.749 65.2ZM310.749 64.206C311.356 64.206 311.851 64.0194 312.233 63.646C312.616 63.2727 312.807 62.7034 312.807 61.938V60.902C312.807 60.1367 312.616 59.5674 312.233 59.194C311.851 58.8207 311.356 58.634 310.749 58.634C310.143 58.634 309.648 58.8207 309.265 59.194C308.883 59.5674 308.691 60.1367 308.691 60.902V61.938C308.691 62.7034 308.883 63.2727 309.265 63.646C309.648 64.0194 310.143 64.206 310.749 64.206Z" fill="#1A1919"/>
<path d="M305.08 56.114C304.837 56.114 304.66 56.058 304.548 55.946C304.445 55.8247 304.394 55.6707 304.394 55.484V55.302C304.394 55.1154 304.445 54.966 304.548 54.854C304.66 54.7327 304.837 54.672 305.08 54.672C305.322 54.672 305.495 54.7327 305.598 54.854C305.71 54.966 305.766 55.1154 305.766 55.302V55.484C305.766 55.6707 305.71 55.8247 305.598 55.946C305.495 56.058 305.322 56.114 305.08 56.114ZM304.52 57.808H305.64V65.032H304.52V57.808Z" fill="#1A1919"/>
<path d="M301.207 65.032C300.815 65.032 300.516 64.9247 300.311 64.71C300.115 64.486 300.017 64.1967 300.017 63.842V58.788H298.827V57.808H299.499C299.742 57.808 299.905 57.7614 299.989 57.668C300.082 57.5654 300.129 57.3927 300.129 57.15V55.806H301.137V57.808H302.719V58.788H301.137V64.052H302.607V65.032H301.207Z" fill="#1A1919"/>
<path d="M297.383 65.032C296.963 65.032 296.659 64.92 296.473 64.696C296.295 64.472 296.183 64.192 296.137 63.856H296.067C295.908 64.304 295.647 64.64 295.283 64.864C294.919 65.088 294.485 65.2 293.981 65.2C293.215 65.2 292.618 65.004 292.189 64.612C291.769 64.22 291.559 63.688 291.559 63.016C291.559 62.3347 291.806 61.812 292.301 61.448C292.805 61.084 293.584 60.902 294.639 60.902H296.067V60.188C296.067 59.6747 295.927 59.2827 295.647 59.012C295.367 58.7414 294.937 58.606 294.359 58.606C293.92 58.606 293.551 58.704 293.253 58.9C292.963 59.096 292.721 59.3574 292.525 59.684L291.853 59.054C292.049 58.662 292.361 58.3307 292.791 58.06C293.22 57.78 293.761 57.64 294.415 57.64C295.292 57.64 295.973 57.8547 296.459 58.284C296.944 58.7134 297.187 59.3107 297.187 60.076V64.052H298.013V65.032H297.383ZM294.163 64.248C294.443 64.248 294.699 64.2154 294.933 64.15C295.166 64.0847 295.367 63.9914 295.535 63.87C295.703 63.7487 295.833 63.6087 295.927 63.45C296.02 63.2914 296.067 63.1187 296.067 62.932V61.742H294.583C293.939 61.742 293.467 61.8354 293.169 62.022C292.879 62.2087 292.735 62.4794 292.735 62.834V63.128C292.735 63.4827 292.861 63.758 293.113 63.954C293.374 64.15 293.724 64.248 294.163 64.248Z" fill="#1A1919"/>
<path d="M287.78 65.2C287.276 65.2 286.823 65.1114 286.422 64.934C286.02 64.7567 285.68 64.5047 285.4 64.178C285.129 63.8514 284.919 63.4547 284.77 62.988C284.63 62.5214 284.56 61.9987 284.56 61.42C284.56 60.8414 284.63 60.3187 284.77 59.852C284.919 59.3854 285.129 58.9887 285.4 58.662C285.68 58.3354 286.02 58.0834 286.422 57.906C286.823 57.7287 287.276 57.64 287.78 57.64C288.498 57.64 289.072 57.7987 289.502 58.116C289.94 58.424 290.267 58.83 290.482 59.334L289.544 59.81C289.413 59.4367 289.198 59.1474 288.9 58.942C288.601 58.7367 288.228 58.634 287.78 58.634C287.444 58.634 287.15 58.69 286.898 58.802C286.646 58.9047 286.436 59.054 286.268 59.25C286.1 59.4367 285.974 59.6654 285.89 59.936C285.806 60.1974 285.764 60.4867 285.764 60.804V62.036C285.764 62.6707 285.932 63.1934 286.268 63.604C286.613 64.0054 287.117 64.206 287.78 64.206C288.685 64.206 289.338 63.786 289.74 62.946L290.552 63.492C290.318 64.0147 289.968 64.43 289.502 64.738C289.044 65.046 288.47 65.2 287.78 65.2Z" fill="#1A1919"/>
<path d="M281.586 63.856H281.53C281.456 64.024 281.362 64.192 281.25 64.36C281.148 64.5187 281.017 64.6634 280.858 64.794C280.7 64.9154 280.508 65.0134 280.284 65.088C280.06 65.1627 279.799 65.2 279.5 65.2C278.754 65.2 278.161 64.962 277.722 64.486C277.284 64.0007 277.064 63.3194 277.064 62.442V57.808H278.184V62.246C278.184 63.5434 278.735 64.192 279.836 64.192C280.06 64.192 280.275 64.164 280.48 64.108C280.695 64.052 280.882 63.968 281.04 63.856C281.208 63.744 281.339 63.604 281.432 63.436C281.535 63.2587 281.586 63.0487 281.586 62.806V57.808H282.706V65.032H281.586V63.856Z" fill="#1A1919"/>
<path d="M273.633 63.856H273.577C273.139 64.752 272.434 65.2 271.463 65.2C271.015 65.2 270.609 65.1114 270.245 64.934C269.881 64.7567 269.569 64.5047 269.307 64.178C269.055 63.8514 268.859 63.4547 268.719 62.988C268.589 62.5214 268.523 61.9987 268.523 61.42C268.523 60.8414 268.589 60.3187 268.719 59.852C268.859 59.3854 269.055 58.9887 269.307 58.662C269.569 58.3354 269.881 58.0834 270.245 57.906C270.609 57.7287 271.015 57.64 271.463 57.64C271.967 57.64 272.397 57.752 272.751 57.976C273.115 58.1907 273.391 58.5267 273.577 58.984H273.633V54.672H274.753V65.032H273.633V63.856ZM271.771 64.192C272.023 64.192 272.261 64.1594 272.485 64.094C272.719 64.0287 272.919 63.9354 273.087 63.814C273.255 63.6834 273.386 63.5294 273.479 63.352C273.582 63.1654 273.633 62.9554 273.633 62.722V60.034C273.633 59.838 273.582 59.656 273.479 59.488C273.386 59.3107 273.255 59.1614 273.087 59.04C272.919 58.9187 272.719 58.8254 272.485 58.76C272.261 58.6854 272.023 58.648 271.771 58.648C271.137 58.648 270.637 58.8487 270.273 59.25C269.909 59.642 269.727 60.16 269.727 60.804V62.036C269.727 62.68 269.909 63.2027 270.273 63.604C270.637 63.996 271.137 64.192 271.771 64.192Z" fill="#1A1919"/>
<path d="M261.101 65.032V55.26H267.065V56.296H262.277V59.572H266.785V60.608H262.277V63.996H267.065V65.032H261.101Z" fill="#1A1919"/>
<path d="M252.539 65.032V57.808H253.659V59.138H253.729C253.86 58.7927 254.093 58.4847 254.429 58.214C254.765 57.9433 255.227 57.808 255.815 57.808H256.249V58.928H255.591C254.984 58.928 254.508 59.0447 254.163 59.278C253.827 59.502 253.659 59.7867 253.659 60.132V65.032H252.539Z" fill="#1A1919"/>
<path d="M247.571 65.2C247.077 65.2 246.629 65.1113 246.227 64.934C245.835 64.7567 245.495 64.5047 245.205 64.178C244.925 63.842 244.706 63.4453 244.547 62.988C244.398 62.5213 244.323 61.9987 244.323 61.42C244.323 60.8507 244.398 60.3327 244.547 59.866C244.706 59.3993 244.925 59.0027 245.205 58.676C245.495 58.34 245.835 58.0833 246.227 57.906C246.629 57.7287 247.077 57.64 247.571 57.64C248.057 57.64 248.491 57.7287 248.873 57.906C249.256 58.0833 249.583 58.3307 249.853 58.648C250.124 58.956 250.329 59.3247 250.469 59.754C250.619 60.1833 250.693 60.6547 250.693 61.168V61.7H245.499V62.036C245.499 62.344 245.546 62.6333 245.639 62.904C245.742 63.1653 245.882 63.394 246.059 63.59C246.246 63.786 246.47 63.94 246.731 64.052C247.002 64.164 247.305 64.22 247.641 64.22C248.099 64.22 248.495 64.1127 248.831 63.898C249.177 63.6833 249.443 63.3753 249.629 62.974L250.427 63.548C250.194 64.0427 249.83 64.444 249.335 64.752C248.841 65.0507 248.253 65.2 247.571 65.2ZM247.571 58.578C247.263 58.578 246.983 58.634 246.731 58.746C246.479 58.8487 246.26 58.998 246.073 59.194C245.896 59.39 245.756 59.6233 245.653 59.894C245.551 60.1553 245.499 60.4447 245.499 60.762V60.86H249.489V60.706C249.489 60.062 249.312 59.5487 248.957 59.166C248.612 58.774 248.15 58.578 247.571 58.578Z" fill="#1A1919"/>
<path d="M236.898 54.672H238.018V58.984H238.074C238.252 58.5734 238.499 58.2467 238.816 58.004C239.143 57.7614 239.577 57.64 240.118 57.64C240.865 57.64 241.453 57.8827 241.882 58.368C242.321 58.844 242.54 59.5207 242.54 60.398V65.032H241.42V60.594C241.42 59.2967 240.874 58.648 239.782 58.648C239.558 58.648 239.339 58.676 239.124 58.732C238.919 58.788 238.732 58.872 238.564 58.984C238.396 59.096 238.261 59.2407 238.158 59.418C238.065 59.586 238.018 59.7867 238.018 60.02V65.032H236.898V54.672Z" fill="#1A1919"/>
<path d="M235.592 65.83C235.592 66.5767 235.298 67.1227 234.71 67.468C234.131 67.8227 233.259 68 232.092 68C230.963 68 230.151 67.846 229.656 67.538C229.161 67.23 228.914 66.7914 228.914 66.222C228.914 65.83 229.017 65.522 229.222 65.298C229.427 65.0834 229.707 64.9247 230.062 64.822V64.668C229.633 64.4627 229.418 64.1267 229.418 63.66C229.418 63.296 229.535 63.0207 229.768 62.834C230.001 62.638 230.3 62.4934 230.664 62.4V62.344C230.235 62.1387 229.899 61.8447 229.656 61.462C229.423 61.0794 229.306 60.636 229.306 60.132C229.306 59.768 229.371 59.432 229.502 59.124C229.633 58.816 229.815 58.5547 230.048 58.34C230.291 58.116 230.575 57.9434 230.902 57.822C231.238 57.7007 231.611 57.64 232.022 57.64C232.535 57.64 232.993 57.7334 233.394 57.92V57.794C233.394 57.514 233.459 57.2854 233.59 57.108C233.721 56.9214 233.935 56.828 234.234 56.828H235.312V57.808H233.94V58.27C234.201 58.494 234.402 58.7647 234.542 59.082C234.691 59.39 234.766 59.74 234.766 60.132C234.766 60.496 234.701 60.832 234.57 61.14C234.439 61.448 234.253 61.714 234.01 61.938C233.777 62.1527 233.492 62.3207 233.156 62.442C232.82 62.5634 232.447 62.624 232.036 62.624C231.803 62.624 231.569 62.6007 231.336 62.554C231.093 62.6194 230.874 62.7174 230.678 62.848C230.482 62.9694 230.384 63.142 230.384 63.366C230.384 63.5807 230.487 63.7254 230.692 63.8C230.897 63.8747 231.163 63.912 231.49 63.912H233.03C233.926 63.912 234.575 64.0847 234.976 64.43C235.387 64.766 235.592 65.2327 235.592 65.83ZM234.542 65.914C234.542 65.6247 234.43 65.3914 234.206 65.214C233.991 65.046 233.604 64.962 233.044 64.962H230.636C230.188 65.1674 229.964 65.494 229.964 65.942C229.964 66.2594 230.081 66.53 230.314 66.754C230.557 66.978 230.963 67.09 231.532 67.09H232.568C233.193 67.09 233.679 66.992 234.024 66.796C234.369 66.6 234.542 66.306 234.542 65.914ZM232.036 61.728C232.512 61.728 232.89 61.616 233.17 61.392C233.45 61.1587 233.59 60.804 233.59 60.328V59.936C233.59 59.46 233.45 59.11 233.17 58.886C232.89 58.6527 232.512 58.536 232.036 58.536C231.56 58.536 231.182 58.6527 230.902 58.886C230.622 59.11 230.482 59.46 230.482 59.936V60.328C230.482 60.804 230.622 61.1587 230.902 61.392C231.182 61.616 231.56 61.728 232.036 61.728Z" fill="#1A1919"/>
<path d="M226.562 56.114C226.319 56.114 226.142 56.058 226.03 55.946C225.927 55.8247 225.876 55.6707 225.876 55.484V55.302C225.876 55.1154 225.927 54.966 226.03 54.854C226.142 54.7327 226.319 54.672 226.562 54.672C226.805 54.672 226.977 54.7327 227.08 54.854C227.192 54.966 227.248 55.1154 227.248 55.302V55.484C227.248 55.6707 227.192 55.8247 227.08 55.946C226.977 56.058 226.805 56.114 226.562 56.114ZM226.002 57.808H227.122V65.032H226.002V57.808Z" fill="#1A1919"/>
<path d="M222.334 60.608H217.392V65.032H216.216V55.26H217.392V59.572H222.334V55.26H223.51V65.032H222.334V60.608Z" fill="#1A1919"/>
<path d="M209.294 63.856H209.238C208.799 64.752 208.094 65.2 207.124 65.2C206.676 65.2 206.27 65.1114 205.906 64.934C205.542 64.7567 205.229 64.5047 204.968 64.178C204.716 63.8514 204.52 63.4547 204.38 62.988C204.249 62.5214 204.184 61.9987 204.184 61.42C204.184 60.8414 204.249 60.3187 204.38 59.852C204.52 59.3854 204.716 58.9887 204.968 58.662C205.229 58.3354 205.542 58.0834 205.906 57.906C206.27 57.7287 206.676 57.64 207.124 57.64C207.628 57.64 208.057 57.752 208.412 57.976C208.776 58.1907 209.051 58.5267 209.238 58.984H209.294V54.672H210.414V65.032H209.294V63.856ZM207.432 64.192C207.684 64.192 207.922 64.1594 208.146 64.094C208.379 64.0287 208.58 63.9354 208.748 63.814C208.916 63.6834 209.046 63.5294 209.14 63.352C209.242 63.1654 209.294 62.9554 209.294 62.722V60.034C209.294 59.838 209.242 59.656 209.14 59.488C209.046 59.3107 208.916 59.1614 208.748 59.04C208.58 58.9187 208.379 58.8254 208.146 58.76C207.922 58.6854 207.684 58.648 207.432 58.648C206.797 58.648 206.298 58.8487 205.934 59.25C205.57 59.642 205.388 60.16 205.388 60.804V62.036C205.388 62.68 205.57 63.2027 205.934 63.604C206.298 63.996 206.797 64.192 207.432 64.192Z" fill="#1A1919"/>
<path d="M196.717 65.032V57.808H197.837V58.984H197.893C198.07 58.5734 198.317 58.2467 198.635 58.004C198.961 57.7614 199.395 57.64 199.937 57.64C200.683 57.64 201.271 57.8827 201.701 58.368C202.139 58.844 202.359 59.5207 202.359 60.398V65.032H201.239V60.594C201.239 59.2967 200.693 58.648 199.601 58.648C199.377 58.648 199.157 58.676 198.943 58.732C198.737 58.788 198.551 58.872 198.383 58.984C198.215 59.096 198.079 59.2407 197.977 59.418C197.883 59.586 197.837 59.7867 197.837 60.02V65.032H196.717Z" fill="#1A1919"/>
<path d="M194.488 65.032C194.068 65.032 193.765 64.92 193.578 64.696C193.401 64.472 193.289 64.192 193.242 63.856H193.172C193.013 64.304 192.752 64.64 192.388 64.864C192.024 65.088 191.59 65.2 191.086 65.2C190.321 65.2 189.723 65.004 189.294 64.612C188.874 64.22 188.664 63.688 188.664 63.016C188.664 62.3347 188.911 61.812 189.406 61.448C189.91 61.084 190.689 60.902 191.744 60.902H193.172V60.188C193.172 59.6747 193.032 59.2827 192.752 59.012C192.472 58.7414 192.043 58.606 191.464 58.606C191.025 58.606 190.657 58.704 190.358 58.9C190.069 59.096 189.826 59.3574 189.63 59.684L188.958 59.054C189.154 58.662 189.467 58.3307 189.896 58.06C190.325 57.78 190.867 57.64 191.52 57.64C192.397 57.64 193.079 57.8547 193.564 58.284C194.049 58.7134 194.292 59.3107 194.292 60.076V64.052H195.118V65.032H194.488ZM191.268 64.248C191.548 64.248 191.805 64.2154 192.038 64.15C192.271 64.0847 192.472 63.9914 192.64 63.87C192.808 63.7487 192.939 63.6087 193.032 63.45C193.125 63.2914 193.172 63.1187 193.172 62.932V61.742H191.688C191.044 61.742 190.573 61.8354 190.274 62.022C189.985 62.2087 189.84 62.4794 189.84 62.834V63.128C189.84 63.4827 189.966 63.758 190.218 63.954C190.479 64.15 190.829 64.248 191.268 64.248Z" fill="#1A1919"/>
<path d="M309.201 47.83C309.201 48.5767 308.907 49.1227 308.319 49.468C307.741 49.8227 306.868 50 305.701 50C304.572 50 303.76 49.846 303.265 49.538C302.771 49.23 302.523 48.7914 302.523 48.222C302.523 47.83 302.626 47.522 302.831 47.298C303.037 47.0834 303.317 46.9247 303.671 46.822V46.668C303.242 46.4627 303.027 46.1267 303.027 45.66C303.027 45.296 303.144 45.0207 303.377 44.834C303.611 44.638 303.909 44.4934 304.273 44.4V44.344C303.844 44.1387 303.508 43.8447 303.265 43.462C303.032 43.0794 302.915 42.636 302.915 42.132C302.915 41.768 302.981 41.432 303.111 41.124C303.242 40.816 303.424 40.5547 303.657 40.34C303.9 40.116 304.185 39.9434 304.511 39.822C304.847 39.7007 305.221 39.64 305.631 39.64C306.145 39.64 306.602 39.7334 307.003 39.92V39.794C307.003 39.514 307.069 39.2854 307.199 39.108C307.33 38.9214 307.545 38.828 307.843 38.828H308.921V39.808H307.549V40.27C307.811 40.494 308.011 40.7647 308.151 41.082C308.301 41.39 308.375 41.74 308.375 42.132C308.375 42.496 308.31 42.832 308.179 43.14C308.049 43.448 307.862 43.714 307.619 43.938C307.386 44.1527 307.101 44.3207 306.765 44.442C306.429 44.5634 306.056 44.624 305.645 44.624C305.412 44.624 305.179 44.6007 304.945 44.554C304.703 44.6194 304.483 44.7174 304.287 44.848C304.091 44.9694 303.993 45.142 303.993 45.366C303.993 45.5807 304.096 45.7254 304.301 45.8C304.507 45.8747 304.773 45.912 305.099 45.912H306.639C307.535 45.912 308.184 46.0847 308.585 46.43C308.996 46.766 309.201 47.2327 309.201 47.83ZM308.151 47.914C308.151 47.6247 308.039 47.3914 307.815 47.214C307.601 47.046 307.213 46.962 306.653 46.962H304.245C303.797 47.1674 303.573 47.494 303.573 47.942C303.573 48.2594 303.69 48.53 303.923 48.754C304.166 48.978 304.572 49.09 305.141 49.09H306.177C306.803 49.09 307.288 48.992 307.633 48.796C307.979 48.6 308.151 48.306 308.151 47.914ZM305.645 43.728C306.121 43.728 306.499 43.616 306.779 43.392C307.059 43.1587 307.199 42.804 307.199 42.328V41.936C307.199 41.46 307.059 41.11 306.779 40.886C306.499 40.6527 306.121 40.536 305.645 40.536C305.169 40.536 304.791 40.6527 304.511 40.886C304.231 41.11 304.091 41.46 304.091 41.936V42.328C304.091 42.804 304.231 43.1587 304.511 43.392C304.791 43.616 305.169 43.728 305.645 43.728Z" fill="#1A1919"/>
<path d="M295.154 47.032V39.808H296.274V40.984H296.33C296.508 40.5733 296.755 40.2467 297.072 40.004C297.399 39.7613 297.833 39.64 298.374 39.64C299.121 39.64 299.709 39.8827 300.138 40.368C300.577 40.844 300.796 41.5207 300.796 42.398V47.032H299.676V42.594C299.676 41.2967 299.13 40.648 298.038 40.648C297.814 40.648 297.595 40.676 297.38 40.732C297.175 40.788 296.988 40.872 296.82 40.984C296.652 41.096 296.517 41.2407 296.414 41.418C296.321 41.586 296.274 41.7867 296.274 42.02V47.032H295.154Z" fill="#1A1919"/>
<path d="M292.214 38.114C291.972 38.114 291.794 38.058 291.682 37.946C291.58 37.8247 291.528 37.6707 291.528 37.484V37.302C291.528 37.1154 291.58 36.966 291.682 36.854C291.794 36.7327 291.972 36.672 292.214 36.672C292.457 36.672 292.63 36.7327 292.732 36.854C292.844 36.966 292.9 37.1154 292.9 37.302V37.484C292.9 37.6707 292.844 37.8247 292.732 37.946C292.63 38.058 292.457 38.114 292.214 38.114ZM291.654 39.808H292.774V47.032H291.654V39.808Z" fill="#1A1919"/>
<path d="M283.697 47.032V39.808H284.817V40.984H284.873C285.051 40.5733 285.298 40.2467 285.615 40.004C285.942 39.7613 286.376 39.64 286.917 39.64C287.664 39.64 288.252 39.8827 288.681 40.368C289.12 40.844 289.339 41.5207 289.339 42.398V47.032H288.219V42.594C288.219 41.2967 287.673 40.648 286.581 40.648C286.357 40.648 286.138 40.676 285.923 40.732C285.718 40.788 285.531 40.872 285.363 40.984C285.195 41.096 285.06 41.2407 284.957 41.418C284.864 41.586 284.817 41.7867 284.817 42.02V47.032H283.697Z" fill="#1A1919"/>
<path d="M280.757 38.114C280.515 38.114 280.337 38.058 280.225 37.946C280.123 37.8247 280.071 37.6707 280.071 37.484V37.302C280.071 37.1154 280.123 36.966 280.225 36.854C280.337 36.7327 280.515 36.672 280.757 36.672C281 36.672 281.173 36.7327 281.275 36.854C281.387 36.966 281.443 37.1154 281.443 37.302V37.484C281.443 37.6707 281.387 37.8247 281.275 37.946C281.173 38.058 281 38.114 280.757 38.114ZM280.197 39.808H281.317V47.032H280.197V39.808Z" fill="#1A1919"/>
<path d="M277.969 47.032C277.549 47.032 277.245 46.92 277.059 46.696C276.881 46.472 276.769 46.192 276.723 45.856H276.653C276.494 46.304 276.233 46.64 275.869 46.864C275.505 47.088 275.071 47.2 274.567 47.2C273.801 47.2 273.204 47.004 272.775 46.612C272.355 46.22 272.145 45.688 272.145 45.016C272.145 44.3347 272.392 43.812 272.887 43.448C273.391 43.084 274.17 42.902 275.225 42.902H276.653V42.188C276.653 41.6747 276.513 41.2827 276.233 41.012C275.953 40.7413 275.523 40.606 274.945 40.606C274.506 40.606 274.137 40.704 273.839 40.9C273.549 41.096 273.307 41.3573 273.111 41.684L272.439 41.054C272.635 40.662 272.947 40.3307 273.377 40.06C273.806 39.78 274.347 39.64 275.001 39.64C275.878 39.64 276.559 39.8547 277.045 40.284C277.53 40.7133 277.773 41.3107 277.773 42.076V46.052H278.599V47.032H277.969ZM274.749 46.248C275.029 46.248 275.285 46.2153 275.519 46.15C275.752 46.0847 275.953 45.9913 276.121 45.87C276.289 45.7487 276.419 45.6087 276.513 45.45C276.606 45.2913 276.653 45.1187 276.653 44.932V43.742H275.169C274.525 43.742 274.053 43.8353 273.755 44.022C273.465 44.2087 273.321 44.4793 273.321 44.834V45.128C273.321 45.4827 273.447 45.758 273.699 45.954C273.96 46.15 274.31 46.248 274.749 46.248Z" fill="#1A1919"/>
<path d="M267.633 47.032V39.808H268.753V41.138H268.823C268.953 40.7927 269.187 40.4847 269.523 40.214C269.859 39.9433 270.321 39.808 270.909 39.808H271.343V40.928H270.685C270.078 40.928 269.602 41.0447 269.257 41.278C268.921 41.502 268.753 41.7867 268.753 42.132V47.032H267.633Z" fill="#1A1919"/>
<path d="M263.652 38.296V47.032H262.476V38.296H259.368V37.26H266.76V38.296H263.652Z" fill="#1A1919"/>
<path d="M251.801 47.032V39.808H252.921V41.138H252.991C253.121 40.7927 253.355 40.4847 253.691 40.214C254.027 39.9433 254.489 39.808 255.077 39.808H255.511V40.928H254.853C254.246 40.928 253.77 41.0447 253.425 41.278C253.089 41.502 252.921 41.7867 252.921 42.132V47.032H251.801Z" fill="#1A1919"/>
<path d="M246.697 47.2C246.211 47.2 245.768 47.1113 245.367 46.934C244.965 46.7567 244.62 46.5047 244.331 46.178C244.051 45.842 243.831 45.4453 243.673 44.988C243.514 44.5213 243.435 43.9987 243.435 43.42C243.435 42.8507 243.514 42.3327 243.673 41.866C243.831 41.3993 244.051 41.0027 244.331 40.676C244.62 40.34 244.965 40.0833 245.367 39.906C245.768 39.7287 246.211 39.64 246.697 39.64C247.182 39.64 247.621 39.7287 248.013 39.906C248.414 40.0833 248.759 40.34 249.049 40.676C249.338 41.0027 249.562 41.3993 249.721 41.866C249.879 42.3327 249.959 42.8507 249.959 43.42C249.959 43.9987 249.879 44.5213 249.721 44.988C249.562 45.4453 249.338 45.842 249.049 46.178C248.759 46.5047 248.414 46.7567 248.013 46.934C247.621 47.1113 247.182 47.2 246.697 47.2ZM246.697 46.206C247.303 46.206 247.798 46.0193 248.181 45.646C248.563 45.2727 248.755 44.7033 248.755 43.938V42.902C248.755 42.1367 248.563 41.5673 248.181 41.194C247.798 40.8207 247.303 40.634 246.697 40.634C246.09 40.634 245.595 40.8207 245.213 41.194C244.83 41.5673 244.639 42.1367 244.639 42.902V43.938C244.639 44.7033 244.83 45.2727 245.213 45.646C245.595 46.0193 246.09 46.206 246.697 46.206Z" fill="#1A1919"/>
<path d="M239.874 40.788H238.698V39.808H239.874V38.352C239.874 37.848 240.005 37.442 240.266 37.134C240.528 36.826 240.924 36.672 241.456 36.672H242.548V37.652H240.994V39.808H242.548V40.788H240.994V47.032H239.874V40.788Z" fill="#1A1919"/>
<path d="M231.521 47.2C230.849 47.2 230.284 47.074 229.827 46.822C229.379 46.5607 228.992 46.2154 228.665 45.786L229.463 45.142C229.743 45.4967 230.056 45.772 230.401 45.968C230.746 46.1547 231.148 46.248 231.605 46.248C232.081 46.248 232.45 46.1454 232.711 45.94C232.982 45.7347 233.117 45.4454 233.117 45.072C233.117 44.792 233.024 44.554 232.837 44.358C232.66 44.1527 232.333 44.0127 231.857 43.938L231.283 43.854C230.947 43.8074 230.639 43.7374 230.359 43.644C230.079 43.5414 229.832 43.4107 229.617 43.252C229.412 43.084 229.248 42.8787 229.127 42.636C229.015 42.3934 228.959 42.104 228.959 41.768C228.959 41.4134 229.024 41.1054 229.155 40.844C229.286 40.5734 229.463 40.3494 229.687 40.172C229.92 39.9947 230.196 39.864 230.513 39.78C230.83 39.6867 231.171 39.64 231.535 39.64C232.123 39.64 232.613 39.7427 233.005 39.948C233.406 40.1534 233.756 40.438 234.055 40.802L233.313 41.474C233.154 41.25 232.921 41.0494 232.613 40.872C232.305 40.6854 231.918 40.592 231.451 40.592C230.984 40.592 230.63 40.6947 230.387 40.9C230.154 41.096 230.037 41.3667 230.037 41.712C230.037 42.0667 230.154 42.3234 230.387 42.482C230.63 42.6407 230.975 42.7574 231.423 42.832L231.983 42.916C232.786 43.0374 233.355 43.2707 233.691 43.616C234.027 43.952 234.195 44.3954 234.195 44.946C234.195 45.646 233.957 46.1967 233.481 46.598C233.005 46.9994 232.352 47.2 231.521 47.2Z" fill="#1A1919"/>
<path d="M225.85 45.856H225.794C225.356 46.752 224.651 47.2 223.68 47.2C223.232 47.2 222.826 47.1114 222.462 46.934C222.098 46.7567 221.786 46.5047 221.524 46.178C221.272 45.8514 221.076 45.4547 220.936 44.988C220.806 44.5214 220.74 43.9987 220.74 43.42C220.74 42.8414 220.806 42.3187 220.936 41.852C221.076 41.3854 221.272 40.9887 221.524 40.662C221.786 40.3354 222.098 40.0834 222.462 39.906C222.826 39.7287 223.232 39.64 223.68 39.64C224.184 39.64 224.614 39.752 224.968 39.976C225.332 40.1907 225.608 40.5267 225.794 40.984H225.85V36.672H226.97V47.032H225.85V45.856ZM223.988 46.192C224.24 46.192 224.478 46.1594 224.702 46.094C224.936 46.0287 225.136 45.9354 225.304 45.814C225.472 45.6834 225.603 45.5294 225.696 45.352C225.799 45.1654 225.85 44.9554 225.85 44.722V42.034C225.85 41.838 225.799 41.656 225.696 41.488C225.603 41.3107 225.472 41.1614 225.304 41.04C225.136 40.9187 224.936 40.8254 224.702 40.76C224.478 40.6854 224.24 40.648 223.988 40.648C223.354 40.648 222.854 40.8487 222.49 41.25C222.126 41.642 221.944 42.16 221.944 42.804V44.036C221.944 44.68 222.126 45.2027 222.49 45.604C222.854 45.996 223.354 46.192 223.988 46.192Z" fill="#1A1919"/>
<path d="M216.172 47.032V39.808H217.292V41.138H217.362C217.493 40.7927 217.726 40.4847 218.062 40.214C218.398 39.9434 218.86 39.808 219.448 39.808H219.882V40.928H219.224C218.617 40.928 218.141 41.0447 217.796 41.278C217.46 41.502 217.292 41.7867 217.292 42.132V47.032H216.172Z" fill="#1A1919"/>
<path d="M213.943 47.032C213.523 47.032 213.22 46.92 213.033 46.696C212.856 46.472 212.744 46.192 212.697 45.856H212.627C212.468 46.304 212.207 46.64 211.843 46.864C211.479 47.088 211.045 47.2 210.541 47.2C209.776 47.2 209.178 47.004 208.749 46.612C208.329 46.22 208.119 45.688 208.119 45.016C208.119 44.3347 208.366 43.812 208.861 43.448C209.365 43.084 210.144 42.902 211.199 42.902H212.627V42.188C212.627 41.6747 212.487 41.2827 212.207 41.012C211.927 40.7414 211.498 40.606 210.919 40.606C210.48 40.606 210.112 40.704 209.813 40.9C209.524 41.096 209.281 41.3574 209.085 41.684L208.413 41.054C208.609 40.662 208.922 40.3307 209.351 40.06C209.78 39.78 210.322 39.64 210.975 39.64C211.852 39.64 212.534 39.8547 213.019 40.284C213.504 40.7134 213.747 41.3107 213.747 42.076V46.052H214.573V47.032H213.943ZM210.723 46.248C211.003 46.248 211.26 46.2154 211.493 46.15C211.726 46.0847 211.927 45.9914 212.095 45.87C212.263 45.7487 212.394 45.6087 212.487 45.45C212.58 45.2914 212.627 45.1187 212.627 44.932V43.742H211.143C210.499 43.742 210.028 43.8354 209.729 44.022C209.44 44.2087 209.295 44.4794 209.295 44.834V45.128C209.295 45.4827 209.421 45.758 209.673 45.954C209.934 46.15 210.284 46.248 210.723 46.248Z" fill="#1A1919"/>
<path d="M197.314 39.808H198.406L199.176 42.93L199.946 46.094H199.974L200.856 42.93L201.766 39.808H202.76L203.698 42.93L204.594 46.094H204.622L205.364 42.93L206.148 39.808H207.198L205.28 47.032H203.894L202.886 43.56L202.256 41.362H202.228L201.612 43.56L200.604 47.032H199.246L197.314 39.808Z" fill="#1A1919"/>
<path d="M195.468 47.032L194.488 44.148H190.54L189.56 47.032H188.37L191.786 37.26H193.284L196.7 47.032H195.468ZM192.542 38.352H192.472L190.82 43.112H194.194L192.542 38.352Z" fill="#1A1919"/>
<defs>
<clipPath id="clip0_143_139">
<rect width="178" height="68" fill="white"/>
</clipPath>
</defs>
</svg>
